<?xml version="1.0" encoding="UTF-8"?>
<svg id="Layer_1" data-name="Layer 1" xmlns="http://www.w3.org/2000/svg" xmlns:xlink="http://www.w3.org/1999/xlink" viewBox="0 0 1007.59 1007.59">
  <defs>
    <style>
      .cls-1 {
        fill: url(#linear-gradient-61);
      }

      .cls-2 {
        fill: url(#linear-gradient-15);
      }

      .cls-3 {
        fill: url(#linear-gradient-13);
      }

      .cls-4 {
        fill: url(#linear-gradient-28);
      }

      .cls-5 {
        fill: url(#linear-gradient-65);
      }

      .cls-6 {
        fill: url(#linear-gradient-69);
      }

      .cls-7 {
        fill: url(#linear-gradient-53);
      }

      .cls-8 {
        fill: url(#linear-gradient-42);
      }

      .cls-9 {
        fill: url(#linear-gradient-46);
      }

      .cls-10 {
        fill: url(#linear-gradient-70);
      }

      .cls-11 {
        fill: url(#linear-gradient-60);
      }

      .cls-12 {
        fill: url(#linear-gradient-93);
      }

      .cls-13 {
        fill: url(#linear-gradient-95);
      }

      .cls-14 {
        fill: url(#linear-gradient-2);
      }

      .cls-15 {
        fill: url(#linear-gradient-87);
      }

      .cls-16 {
        fill: url(#linear-gradient-64);
      }

      .cls-17 {
        fill: url(#linear-gradient-56);
      }

      .cls-18 {
        fill: url(#linear-gradient-43);
      }

      .cls-19 {
        fill: url(#linear-gradient-25);
      }

      .cls-20 {
        fill: url(#linear-gradient-82);
      }

      .cls-21 {
        fill: url(#linear-gradient-10);
      }

      .cls-22 {
        fill: url(#linear-gradient-12);
      }

      .cls-23 {
        fill: url(#linear-gradient-40);
      }

      .cls-24 {
        fill: url(#linear-gradient-27);
      }

      .cls-25 {
        fill: url(#linear-gradient-68);
      }

      .cls-26 {
        fill: url(#linear-gradient-37);
      }

      .cls-27 {
        fill: url(#linear-gradient-75);
      }

      .cls-28 {
        fill: url(#linear-gradient-55);
      }

      .cls-29 {
        fill: url(#linear-gradient-39);
      }

      .cls-30 {
        fill: url(#linear-gradient-89);
      }

      .cls-31 {
        fill: url(#linear-gradient-52);
      }

      .cls-32 {
        fill: url(#linear-gradient-58);
      }

      .cls-33 {
        fill: url(#linear-gradient-47);
      }

      .cls-34 {
        fill: url(#linear-gradient-26);
      }

      .cls-35 {
        fill: url(#linear-gradient-74);
      }

      .cls-36 {
        fill: url(#linear-gradient-97);
      }

      .cls-37 {
        fill: url(#linear-gradient-72);
      }

      .cls-38 {
        fill: url(#linear-gradient-4);
      }

      .cls-39 {
        fill: url(#linear-gradient-35);
      }

      .cls-40 {
        fill: url(#linear-gradient-30);
      }

      .cls-41 {
        fill: url(#linear-gradient-76);
      }

      .cls-42 {
        fill: url(#radial-gradient);
      }

      .cls-43 {
        fill: url(#linear-gradient-73);
      }

      .cls-44 {
        fill: url(#linear-gradient-71);
      }

      .cls-45 {
        fill: url(#linear-gradient-44);
      }

      .cls-46 {
        fill: url(#linear-gradient-96);
      }

      .cls-47 {
        fill: url(#linear-gradient-49);
      }

      .cls-48 {
        fill: url(#linear-gradient-3);
      }

      .cls-49 {
        fill: url(#linear-gradient-34);
      }

      .cls-50 {
        fill: url(#linear-gradient-5);
      }

      .cls-51 {
        fill: url(#linear-gradient-38);
      }

      .cls-52 {
        fill: url(#linear-gradient-91);
      }

      .cls-53 {
        fill: url(#linear-gradient-22);
      }

      .cls-54 {
        fill: url(#linear-gradient-24);
      }

      .cls-55 {
        fill: url(#linear-gradient-94);
      }

      .cls-56 {
        fill: url(#linear-gradient-54);
      }

      .cls-57 {
        fill: url(#linear-gradient-92);
      }

      .cls-58 {
        fill: url(#linear-gradient-90);
      }

      .cls-59 {
        fill: url(#linear-gradient-33);
      }

      .cls-60 {
        fill: url(#linear-gradient-79);
      }

      .cls-61 {
        fill: url(#linear-gradient-78);
      }

      .cls-62 {
        fill: url(#linear-gradient-51);
      }

      .cls-63 {
        fill: url(#linear-gradient-8);
      }

      .cls-64 {
        fill: url(#linear-gradient-66);
      }

      .cls-65 {
        fill: url(#linear-gradient-57);
      }

      .cls-66 {
        fill: url(#linear-gradient-77);
      }

      .cls-67 {
        fill: url(#linear-gradient-88);
      }

      .cls-68 {
        fill: url(#linear-gradient-14);
      }

      .cls-69 {
        fill: url(#linear-gradient-62);
      }

      .cls-70 {
        fill: url(#linear-gradient-29);
      }

      .cls-71 {
        fill: url(#linear-gradient-20);
      }

      .cls-72 {
        fill: url(#linear-gradient-67);
      }

      .cls-73 {
        fill: url(#linear-gradient-17);
      }

      .cls-74 {
        fill: url(#linear-gradient-50);
      }

      .cls-75 {
        fill: url(#linear-gradient-7);
      }

      .cls-76 {
        fill: url(#linear-gradient-9);
      }

      .cls-77 {
        fill: url(#linear-gradient-59);
      }

      .cls-78 {
        fill: url(#linear-gradient-11);
      }

      .cls-79 {
        fill: url(#linear-gradient-19);
      }

      .cls-80 {
        fill: url(#linear-gradient-80);
      }

      .cls-81 {
        fill: url(#linear-gradient-6);
      }

      .cls-82 {
        fill: url(#linear-gradient-83);
      }

      .cls-83 {
        fill: url(#linear-gradient-36);
      }

      .cls-84 {
        fill: url(#linear-gradient-21);
      }

      .cls-85 {
        fill: url(#linear-gradient-45);
      }

      .cls-86 {
        fill: url(#linear-gradient-85);
      }

      .cls-87 {
        fill: url(#linear-gradient-81);
      }

      .cls-88 {
        fill: url(#linear-gradient-84);
      }

      .cls-89 {
        fill: url(#linear-gradient-48);
      }

      .cls-90 {
        fill: url(#linear-gradient-32);
      }

      .cls-91 {
        fill: url(#linear-gradient-86);
      }

      .cls-92 {
        fill: url(#linear-gradient-41);
      }

      .cls-93 {
        fill: url(#linear-gradient-16);
      }

      .cls-94 {
        fill: url(#linear-gradient);
      }

      .cls-95 {
        fill: url(#linear-gradient-23);
      }

      .cls-96 {
        fill: url(#linear-gradient-31);
      }

      .cls-97 {
        fill: url(#linear-gradient-63);
      }

      .cls-98 {
        fill: url(#linear-gradient-18);
      }
    </style>
    <radialGradient id="radial-gradient" cx="506.39" cy="481.28" fx="506.39" fy="481.28" r="693.44" gradientUnits="userSpaceOnUse">
      <stop offset="0" stop-color="#001900"/>
      <stop offset=".25" stop-color="#001400"/>
      <stop offset="1" stop-color="#000c00"/>
    </radialGradient>
    <linearGradient id="linear-gradient" x1="480.81" y1="669.71" x2="526.82" y2="669.71" gradientUnits="userSpaceOnUse">
      <stop offset="0" stop-color="#b47a1a"/>
      <stop offset=".05" stop-color="#b8801e"/>
      <stop offset=".13" stop-color="#c69329"/>
      <stop offset=".22" stop-color="#dbb23c"/>
      <stop offset=".32" stop-color="#fadd55"/>
      <stop offset=".33" stop-color="#ffe55a"/>
      <stop offset=".52" stop-color="#ffec88"/>
      <stop offset=".66" stop-color="#ffe55a"/>
      <stop offset="1" stop-color="#b47a1a"/>
    </linearGradient>
    <linearGradient id="linear-gradient-2" x1="245.05" y1="658.27" x2="762.66" y2="658.27" xlink:href="#linear-gradient"/>
    <linearGradient id="linear-gradient-3" x1="332.07" y1="666.24" x2="675.55" y2="666.24" xlink:href="#linear-gradient"/>
    <linearGradient id="linear-gradient-4" x1="135" y1="668.78" x2="872.59" y2="668.78" xlink:href="#linear-gradient"/>
    <linearGradient id="linear-gradient-5" x1="485.96" y1="257.52" x2="521.66" y2="257.52" xlink:href="#linear-gradient"/>
    <linearGradient id="linear-gradient-6" x1="402.56" y1="376.86" x2="607.78" y2="376.86" xlink:href="#linear-gradient"/>
    <linearGradient id="linear-gradient-7" x1="527.8" y1="376.8" x2="630.72" y2="376.8" xlink:href="#linear-gradient"/>
    <linearGradient id="linear-gradient-8" x1="376.86" y1="376.8" x2="479.82" y2="376.8" xlink:href="#linear-gradient"/>
    <linearGradient id="linear-gradient-9" x1="483.33" y1="504.78" x2="524.3" y2="504.78" xlink:href="#linear-gradient"/>
    <linearGradient id="linear-gradient-10" x1="439.4" y1="504.78" x2="465.1" y2="504.78" xlink:href="#linear-gradient"/>
    <linearGradient id="linear-gradient-11" x1="391.58" y1="504.8" x2="409.72" y2="504.8" xlink:href="#linear-gradient"/>
    <linearGradient id="linear-gradient-12" x1="542.44" y1="504.78" x2="568.22" y2="504.78" xlink:href="#linear-gradient"/>
    <linearGradient id="linear-gradient-13" x1="597.82" y1="504.8" x2="616.01" y2="504.8" xlink:href="#linear-gradient"/>
    <linearGradient id="linear-gradient-14" x1="742.62" y1="486.71" x2="760.49" y2="486.71" xlink:href="#linear-gradient"/>
    <linearGradient id="linear-gradient-15" x1="701.14" y1="432.71" x2="711.22" y2="432.71" xlink:href="#linear-gradient"/>
    <linearGradient id="linear-gradient-16" x1="792.18" y1="460.22" x2="806.83" y2="460.22" xlink:href="#linear-gradient"/>
    <linearGradient id="linear-gradient-17" x1="771.13" y1="457.74" x2="777.14" y2="457.74" xlink:href="#linear-gradient"/>
    <linearGradient id="linear-gradient-18" x1="622.1" y1="432" x2="629.98" y2="432" xlink:href="#linear-gradient"/>
    <linearGradient id="linear-gradient-19" x1="685.87" y1="439.26" x2="694.96" y2="439.26" xlink:href="#linear-gradient"/>
    <linearGradient id="linear-gradient-20" x1="629.5" y1="439.34" x2="646.74" y2="439.34" xlink:href="#linear-gradient"/>
    <linearGradient id="linear-gradient-21" x1="636.35" y1="483.58" x2="715.31" y2="483.58" xlink:href="#linear-gradient"/>
    <linearGradient id="linear-gradient-22" x1="612.12" y1="450.09" x2="669.36" y2="450.09" xlink:href="#linear-gradient"/>
    <linearGradient id="linear-gradient-23" x1="645.21" y1="452.26" x2="661.31" y2="452.26" xlink:href="#linear-gradient"/>
    <linearGradient id="linear-gradient-24" x1="778.19" y1="469.65" x2="785.96" y2="469.65" xlink:href="#linear-gradient"/>
    <linearGradient id="linear-gradient-25" x1="693.66" y1="425.27" x2="700.27" y2="425.27" xlink:href="#linear-gradient"/>
    <linearGradient id="linear-gradient-26" x1="646.98" y1="476.54" x2="733.73" y2="476.54" xlink:href="#linear-gradient"/>
    <linearGradient id="linear-gradient-27" x1="767.22" y1="466.91" x2="813.67" y2="466.91" xlink:href="#linear-gradient"/>
    <linearGradient id="linear-gradient-28" x1="778.63" y1="459.74" x2="822.44" y2="459.74" xlink:href="#linear-gradient"/>
    <linearGradient id="linear-gradient-29" x1="674.61" y1="484.58" x2="698.54" y2="484.58" xlink:href="#linear-gradient"/>
    <linearGradient id="linear-gradient-30" x1="674.93" y1="485.16" x2="689.37" y2="485.16" xlink:href="#linear-gradient"/>
    <linearGradient id="linear-gradient-31" x1="678.98" y1="457.35" x2="714.63" y2="457.35" xlink:href="#linear-gradient"/>
    <linearGradient id="linear-gradient-32" x1="682.38" y1="440.3" x2="715.8" y2="440.3" xlink:href="#linear-gradient"/>
    <linearGradient id="linear-gradient-33" x1="679.14" y1="438.69" x2="713.28" y2="438.69" xlink:href="#linear-gradient"/>
    <linearGradient id="linear-gradient-34" x1="607.43" y1="425.24" x2="623.32" y2="425.24" xlink:href="#linear-gradient"/>
    <linearGradient id="linear-gradient-35" x1="628.52" y1="420.16" x2="678.61" y2="420.16" xlink:href="#linear-gradient"/>
    <linearGradient id="linear-gradient-36" x1="623.41" y1="351.72" x2="634.83" y2="351.72" xlink:href="#linear-gradient"/>
    <linearGradient id="linear-gradient-37" x1="617.07" y1="491.55" x2="869.51" y2="491.55" xlink:href="#linear-gradient"/>
    <linearGradient id="linear-gradient-38" x1="247.13" y1="486.71" x2="265.04" y2="486.71" xlink:href="#linear-gradient"/>
    <linearGradient id="linear-gradient-39" x1="296.44" y1="432.71" x2="306.57" y2="432.71" xlink:href="#linear-gradient"/>
    <linearGradient id="linear-gradient-40" x1="200.8" y1="460.22" x2="215.45" y2="460.22" xlink:href="#linear-gradient"/>
    <linearGradient id="linear-gradient-41" x1="230.52" y1="457.74" x2="236.54" y2="457.74" xlink:href="#linear-gradient"/>
    <linearGradient id="linear-gradient-42" x1="377.61" y1="432" x2="385.48" y2="432" xlink:href="#linear-gradient"/>
    <linearGradient id="linear-gradient-43" x1="312.71" y1="439.26" x2="321.76" y2="439.26" xlink:href="#linear-gradient"/>
    <linearGradient id="linear-gradient-44" x1="360.84" y1="439.34" x2="378.16" y2="439.34" xlink:href="#linear-gradient"/>
    <linearGradient id="linear-gradient-45" x1="292.32" y1="483.58" x2="371.23" y2="483.58" xlink:href="#linear-gradient"/>
    <linearGradient id="linear-gradient-46" x1="338.28" y1="450.09" x2="395.49" y2="450.09" xlink:href="#linear-gradient"/>
    <linearGradient id="linear-gradient-47" x1="346.33" y1="452.26" x2="362.42" y2="452.26" xlink:href="#linear-gradient"/>
    <linearGradient id="linear-gradient-48" x1="221.69" y1="469.65" x2="229.42" y2="469.65" xlink:href="#linear-gradient"/>
    <linearGradient id="linear-gradient-49" x1="307.35" y1="425.27" x2="313.94" y2="425.27" xlink:href="#linear-gradient"/>
    <linearGradient id="linear-gradient-50" x1="273.86" y1="476.54" x2="360.68" y2="476.54" xlink:href="#linear-gradient"/>
    <linearGradient id="linear-gradient-51" x1="193.99" y1="466.91" x2="240.44" y2="466.91" xlink:href="#linear-gradient"/>
    <linearGradient id="linear-gradient-52" x1="185.19" y1="459.74" x2="229.01" y2="459.74" xlink:href="#linear-gradient"/>
    <linearGradient id="linear-gradient-53" x1="309.08" y1="484.58" x2="333.05" y2="484.58" xlink:href="#linear-gradient"/>
    <linearGradient id="linear-gradient-54" x1="318.22" y1="485.16" x2="332.74" y2="485.16" xlink:href="#linear-gradient"/>
    <linearGradient id="linear-gradient-55" x1="292.99" y1="457.35" x2="328.69" y2="457.35" xlink:href="#linear-gradient"/>
    <linearGradient id="linear-gradient-56" x1="291.86" y1="440.3" x2="325.24" y2="440.3" xlink:href="#linear-gradient"/>
    <linearGradient id="linear-gradient-57" x1="294.34" y1="438.69" x2="328.41" y2="438.69" xlink:href="#linear-gradient"/>
    <linearGradient id="linear-gradient-58" x1="384.38" y1="425.24" x2="400.24" y2="425.24" xlink:href="#linear-gradient"/>
    <linearGradient id="linear-gradient-59" x1="329.06" y1="420.16" x2="379.1" y2="420.16" xlink:href="#linear-gradient"/>
    <linearGradient id="linear-gradient-60" x1="372.81" y1="351.72" x2="384.19" y2="351.72" xlink:href="#linear-gradient"/>
    <linearGradient id="linear-gradient-61" x1="138.11" y1="491.55" x2="406.89" y2="491.55" xlink:href="#linear-gradient"/>
    <linearGradient id="linear-gradient-62" x1="462.39" y1="379.22" x2="545.24" y2="379.22" xlink:href="#linear-gradient"/>
    <linearGradient id="linear-gradient-63" x1="381.96" y1="551.15" x2="410.51" y2="551.15" xlink:href="#linear-gradient"/>
    <linearGradient id="linear-gradient-64" x1="412.61" y1="555.12" x2="429.16" y2="555.12" xlink:href="#linear-gradient"/>
    <linearGradient id="linear-gradient-65" x1="431.73" y1="555.39" x2="450.79" y2="555.39" xlink:href="#linear-gradient"/>
    <linearGradient id="linear-gradient-66" x1="453.57" y1="555.12" x2="465.7" y2="555.12" xlink:href="#linear-gradient"/>
    <linearGradient id="linear-gradient-67" x1="468.57" y1="555.12" x2="483.33" y2="555.12" xlink:href="#linear-gradient"/>
    <linearGradient id="linear-gradient-68" x1="495.41" y1="551.26" x2="522.59" y2="551.26" xlink:href="#linear-gradient"/>
    <linearGradient id="linear-gradient-69" x1="525.22" y1="550.86" x2="539.71" y2="550.86" xlink:href="#linear-gradient"/>
    <linearGradient id="linear-gradient-70" x1="546.92" y1="551.44" x2="565.61" y2="551.44" xlink:href="#linear-gradient"/>
    <linearGradient id="linear-gradient-71" x1="567.57" y1="554.98" x2="584.52" y2="554.98" xlink:href="#linear-gradient"/>
    <linearGradient id="linear-gradient-72" x1="585.97" y1="551.41" x2="605" y2="551.41" xlink:href="#linear-gradient"/>
    <linearGradient id="linear-gradient-73" x1="606.98" y1="559.29" x2="625.63" y2="559.29" xlink:href="#linear-gradient"/>
    <linearGradient id="linear-gradient-74" x1="261.1" y1="599" x2="288.16" y2="599" xlink:href="#linear-gradient"/>
    <linearGradient id="linear-gradient-75" x1="282.01" y1="607.21" x2="301.57" y2="607.21" xlink:href="#linear-gradient"/>
    <linearGradient id="linear-gradient-76" x1="300.48" y1="606.85" x2="313.91" y2="606.85" xlink:href="#linear-gradient"/>
    <linearGradient id="linear-gradient-77" x1="311.06" y1="605.43" x2="335.2" y2="605.43" xlink:href="#linear-gradient"/>
    <linearGradient id="linear-gradient-78" x1="331.06" y1="601.51" x2="347.34" y2="601.51" xlink:href="#linear-gradient"/>
    <linearGradient id="linear-gradient-79" x1="342.23" y1="606.6" x2="357.58" y2="606.6" xlink:href="#linear-gradient"/>
    <linearGradient id="linear-gradient-80" x1="357.55" y1="599.27" x2="380.59" y2="599.27" xlink:href="#linear-gradient"/>
    <linearGradient id="linear-gradient-81" x1="385.43" y1="598.96" x2="425.54" y2="598.96" xlink:href="#linear-gradient"/>
    <linearGradient id="linear-gradient-82" x1="418.43" y1="606.37" x2="431.59" y2="606.37" xlink:href="#linear-gradient"/>
    <linearGradient id="linear-gradient-83" x1="430.41" y1="607.57" x2="452.14" y2="607.57" xlink:href="#linear-gradient"/>
    <linearGradient id="linear-gradient-84" x1="450.96" y1="606.6" x2="466.31" y2="606.6" xlink:href="#linear-gradient"/>
    <linearGradient id="linear-gradient-85" x1="465.71" y1="608.77" x2="481.52" y2="608.77" xlink:href="#linear-gradient"/>
    <linearGradient id="linear-gradient-86" x1="483.27" y1="601.51" x2="499.55" y2="601.51" xlink:href="#linear-gradient"/>
    <linearGradient id="linear-gradient-87" x1="494.27" y1="606.45" x2="511.1" y2="606.45" xlink:href="#linear-gradient"/>
    <linearGradient id="linear-gradient-88" x1="528.94" y1="598.75" x2="563.33" y2="598.75" xlink:href="#linear-gradient"/>
    <linearGradient id="linear-gradient-89" x1="548.47" y1="599.05" x2="566.39" y2="599.05" xlink:href="#linear-gradient"/>
    <linearGradient id="linear-gradient-90" x1="565.49" y1="606.6" x2="580.84" y2="606.6" xlink:href="#linear-gradient"/>
    <linearGradient id="linear-gradient-91" x1="596.71" y1="597.79" x2="631.4" y2="597.79" xlink:href="#linear-gradient"/>
    <linearGradient id="linear-gradient-92" x1="619.42" y1="606.85" x2="632.85" y2="606.85" xlink:href="#linear-gradient"/>
    <linearGradient id="linear-gradient-93" x1="632.55" y1="599.22" x2="651.21" y2="599.22" xlink:href="#linear-gradient"/>
    <linearGradient id="linear-gradient-94" x1="642.46" y1="615.25" x2="667.93" y2="615.25" xlink:href="#linear-gradient"/>
    <linearGradient id="linear-gradient-95" x1="685.25" y1="598.86" x2="723.28" y2="598.86" xlink:href="#linear-gradient"/>
    <linearGradient id="linear-gradient-96" x1="713.57" y1="606.85" x2="727" y2="606.85" xlink:href="#linear-gradient"/>
    <linearGradient id="linear-gradient-97" x1="721.01" y1="615.25" x2="746.48" y2="615.25" xlink:href="#linear-gradient"/>
  </defs>
  <g>
    <rect class="cls-42" width="1007.59" height="1007.59"/>
    <g>
      <g>
        <g>
          <polygon class="cls-94" points="503.79 639.66 480.81 669.65 503.79 699.76 526.82 669.65 503.79 639.66"/>
          <g>
            <path class="cls-14" d="M307.67,633.8c-2.72.59-5.43,1.14-8.03,1.81-2.56.75-5,1.93-7.44,2.79-9.72,3.7-17.59,9.25-24.01,14.64-6.14,5.83-11.1,11.38-14.25,16.57-6.85,10.08-8.89,16.84-8.89,16.84,0,0,1.89-6.77,8.5-17.12,3.15-5.27,7.95-10.94,14.05-16.96,6.42-5.51,14.25-11.49,24.13-15.27,2.44-.87,4.92-2.01,7.52-2.79,2.64-.67,5.39-1.3,8.15-1.97,5.51-1.62,11.41-1.42,17.4-2.13,5.98-.47,12.12.51,18.46.71,6.34.55,12.59,2.24,19.05,3.39,12.63,3.23,25.74,7.12,38.22,12.87,12.79,5.2,25.27,11.26,38.69,14.64,13.3,3.62,27.23,4.96,40.73,3.54,8.31-1.14,16.29-3.35,23.89-6.34,7.6,2.99,15.59,5.2,23.89,6.34,13.42,1.41,27.35.08,40.73-3.54,13.42-3.39,25.82-9.45,38.61-14.64,12.51-5.75,25.62-9.64,38.3-12.87,6.38-1.14,12.71-2.83,18.93-3.39,6.3-.2,12.55-1.18,18.54-.71,6.06.71,11.93.51,17.44,2.13,2.72.67,5.47,1.3,8.07,1.97,2.72.79,5.04,1.93,7.52,2.79,9.92,3.78,17.83,9.76,24.09,15.27,6.14,6.02,11.02,11.69,14.09,16.96,6.65,10.35,8.62,17.12,8.62,17.12,0,0-2.13-6.77-8.9-16.84-3.3-5.2-8.11-10.74-14.32-16.57-6.46-5.39-14.25-10.94-24.01-14.64-2.48-.86-4.88-2.04-7.36-2.79-2.64-.67-5.36-1.22-8.11-1.81-5.43-1.62-11.3-1.45-17.12-1.93-5.99-.51-12.08.48-18.3.71-6.18.63-12.48,2.24-18.85,3.35-12.55,3.35-25.35,7.48-37.78,13.22-12.51,5.2-25.15,11.53-38.85,15.04-13.58,3.58-27.79,4.88-41.64,3.15-8.15-.98-16.1-3.15-23.57-6.18-7.52,3.03-15.43,5.2-23.69,6.18-13.78,1.73-28.02.44-41.6-3.15-13.66-3.5-26.29-9.84-38.81-15.04-12.4-5.74-25.31-9.88-37.82-13.22-6.42-1.1-12.63-2.72-18.81-3.35-6.18-.23-12.32-1.22-18.26-.71-5.94.48-11.77.31-17.16,1.93Z"/>
            <path class="cls-48" d="M339.19,658.12c-9.84-3.46-2.13-12,2.4-2.64-4.53-9.37,6.97-10.04,3.54-.2,3.42-9.84,12-2.16,2.6,2.4,8.58-4.18,9.76,4.92,2.48,3.93,1.54.63,3.35,1.26,5.31,1.85,8.27,2.87,20.19,6.34,34.71,9.45,14.44,2.87,31.65,5.11,49.99,5.04,18.34,0,37.86-3.11,55.93-10.19,2.6-1.1,4.84-3.35,7.68-3.35s5.11,2.24,7.67,3.35c18.03,7.08,37.55,10.19,55.85,10.19,18.42.08,35.54-2.16,50.06-5.04,14.44-3.11,26.41-6.57,34.64-9.45,1.97-.59,3.7-1.22,5.39-1.85-7.32.98-6.02-8.11,2.36-3.93-9.37-4.57-.75-12.24,2.76-2.4-3.51-9.84,7.91-9.17,3.46.2,4.45-9.37,12.24-.83,2.4,2.64,9.84-3.46,9.21,8.07-.24,3.5,9.45,4.57.87,12.08-2.6,2.36,3.47,9.72-8.11,9.21-3.58-.2-3.78,7.99-9.84,2.99-5.63-.67-1.18.47-2.36,1.1-3.82,1.73-8.07,3.46-19.56,8.23-34.28,11.89-14.52,3.7-31.84,7.36-50.93,7.56-18.93.24-39.36-2.56-58.44-9.92-1.73-.67-3.23-2.12-5.08-2.12s-3.39,1.45-5.08,2.12c-19.17,7.36-39.59,10.16-58.56,9.92-19.01-.2-36.37-3.86-50.89-7.56-14.6-3.66-26.21-8.42-34.2-11.89-1.5-.63-2.72-1.26-3.94-1.73,4.21,3.66-1.77,8.66-5.59.67,4.49,9.41-7.01,9.92-3.58.2-3.42,9.72-12,2.2-2.64-2.36-9.37,4.57-10-6.96-.16-3.5Z"/>
          </g>
          <rect class="cls-38" x="135" y="666.66" width="737.58" height="4.25"/>
        </g>
        <g>
          <polygon class="cls-50" points="503.79 227.22 485.96 257.49 503.79 287.83 521.66 257.49 503.79 227.22"/>
          <g>
            <path class="cls-81" d="M505.17,479.43l-102.61-102.57,102.61-102.57,102.61,102.57-102.61,102.57ZM414.84,376.86l90.33,90.25,90.25-90.25-90.25-90.37-90.33,90.37Z"/>
            <polygon class="cls-75" points="532.17 475.46 527.8 471.09 622.03 376.86 527.8 282.56 532.17 278.15 630.72 376.86 532.17 475.46"/>
            <polygon class="cls-63" points="475.46 475.46 376.86 376.86 475.46 278.15 479.82 282.56 385.6 376.86 479.82 471.09 475.46 475.46"/>
          </g>
        </g>
        <g>
          <g>
            <polygon class="cls-76" points="503.79 485.29 508.63 500.21 524.3 500.21 511.59 509.34 516.47 524.26 503.79 515.05 491.16 524.26 496 509.34 483.33 500.21 498.99 500.21 503.79 485.29"/>
            <polygon class="cls-21" points="452.23 492.58 455.3 501.9 465.1 501.9 457.19 507.69 460.18 516.98 452.23 511.27 444.32 516.98 447.35 507.69 439.4 501.9 449.2 501.9 452.23 492.58"/>
            <polygon class="cls-78" points="400.71 496.16 402.8 502.81 409.72 502.81 404.17 506.82 406.26 513.44 400.71 509.34 395.08 513.44 397.25 506.82 391.58 502.81 398.55 502.81 400.71 496.16"/>
            <polygon class="cls-22" points="555.35 492.58 552.32 501.9 542.44 501.9 550.47 507.69 547.4 516.98 555.35 511.27 563.26 516.98 560.27 507.69 568.22 501.9 558.38 501.9 555.35 492.58"/>
            <polygon class="cls-3" points="606.91 496.16 604.75 502.81 597.82 502.81 603.45 506.82 601.36 513.44 606.91 509.34 612.54 513.44 610.38 506.82 616.01 502.81 609.08 502.81 606.91 496.16"/>
          </g>
          <g>
            <g>
              <g>
                <path class="cls-68" d="M748.68,489.11c2.72-.86,4.64-1.97,4.64-1.97-1.18.79-2.16,1.42-3.19,1.97h7.52c.98-1.18,1.89-2.6,2.83-4.33,0,0-9.95-2.56-17.87,4.33h6.06Z"/>
                <path class="cls-2" d="M710.94,438.65l-.04-.08c0-2.36-1.26-5.43-6.18-8.07,0,0,3.89,2.6,5.23,6.61-.31-.2-.59-.51-.9-.59-6.61-2.87-7.91-9.76-7.91-9.76,12.67.16,9.8,11.89,9.8,11.89Z"/>
                <path class="cls-93" d="M806.42,468.8q0-.08-.08-.12c-.04-3.46-1.89-7.83-8.97-11.61,0,0,5.75,3.7,7.63,9.56-.51-.39-.87-.71-1.3-.9-9.6-4.18-11.53-14.09-11.53-14.09,18.42.19,14.25,17.16,14.25,17.16Z"/>
                <path class="cls-73" d="M776.35,449.75s0,.04-.04.04c-1.73,1.77-3.03,4.92-1.3,10.51,0,0-1.1-4.8.94-8.78,0,.44.08.83.24,1.06,2.72,7.09-1.3,13.15-1.3,13.15-9.25-9.53,1.45-15.98,1.45-15.98Z"/>
                <path class="cls-98" d="M629.98,433.54v-.04c-.83-.91-2.29-1.77-5.08-1.26,0,0,2.36-.2,4.21.98-.24,0-.44,0-.55.04-3.62.98-6.46-1.34-6.46-1.34,5.28-4.05,7.88,1.61,7.88,1.61Z"/>
                <path class="cls-79" d="M685.87,439.28h0c1.26.71,3.19.95,6.02-.79,0,0-2.52,1.22-4.96.71.2-.08.44-.2.55-.24,3.54-2.56,7.48-1.18,7.48-1.18-3.94,6.46-9.09,1.5-9.09,1.5Z"/>
                <path class="cls-71" d="M629.5,445.5s.04-.04.04-.04c3.35.12,7.67-1.41,11.81-8.15,0,0-4.01,5.35-9.76,6.89.43-.35.75-.83.98-1.14,4.57-9.09,14.17-10.47,14.17-10.47-1.06,17.71-17.24,12.91-17.24,12.91Z"/>
                <path class="cls-84" d="M641.04,489.11c.31-.12.71-.27,1.02-.39,1.06-.44,2.28-.87,3.38-1.34,1.26-.31,2.64-.75,3.94-1.1,5.2-1.61,11.34-2.44,17.95-2.83h6.46l1.3.08c.91.12,1.77.23,2.64.27.95.04,1.85.16,2.72.27.98.04,1.81.28,2.72.44,1.85.35,3.7.59,5.51,1.06,3.54.86,7.05,2.08,10.51,3.54h16.13c-.31-.23-.71-.43-1.06-.71-7.79-4.57-16.14-7.56-24.21-8.98-8.15-1.54-15.94-1.69-23.03-.94-7.09.98-13.42,2.44-18.73,4.72-1.3.55-2.6,1.02-3.86,1.45-1.14.63-2.33,1.26-3.39,1.77-1.14.63-2.13,1.14-3.15,1.73-.55.24-.98.55-1.53.94h4.68Z"/>
                <path class="cls-53" d="M614.16,439.75c.12.39,0,.12,0,.24l.12.04.04.2.16.19.35.44c.2.31.31.63.63.94.55.67,1.18,1.38,1.81,1.93,2.52,2.04,5.71,2.79,8.38,2.56.75-.16,1.42-.31,1.93-.35.63-.28,1.22-.48,1.73-.67.23-.16.23-.08.55-.32l.31-.16c.28-.19.44-.31.79-.47.43-.43.94-.87,1.18-1.34,1.41-1.89,1.61-4.09,1.18-5.71-.28-.75-.59-1.61-1.06-2.05-.43-.59-.98-.98-1.45-1.22-1.14-.39-2.01-.32-2.56-.2-.55.2-.75.35-.75.35,0,0,.2-.16.75-.2.55-.12,1.41-.04,2.28.51,1.81.75,2.72,4.8.31,7.4-.23.39-.67.47-.86.79-.24.16-.48.24-.75.39l-.39.16s-.16.08-.27.08c-.43.08-.98.24-1.5.39-.51.04-.98.04-1.54.08-2.12-.04-4.37-.86-6.06-2.48-.43-.43-.75-.9-1.06-1.26-.2-.2-.35-.67-.51-.98l-.48-.79c-.35-1.26-.79-2.6-.86-3.93-.28-2.76.19-5.67,1.61-8.31.71-1.3,1.58-2.48,2.6-3.58.59-.55,1.18-1.02,1.85-1.45.2-.2.55-.35.87-.59.28-.16.55-.31.98-.55,3.03-1.34,6.5-2.2,9.96-2.32,6.93-.28,14.29,2.91,19.17,8.5.63.75,1.18,1.54,1.73,2.24l.71,1.1.32.47c.16.24.27.51.39.79l.75,1.45.16.35s.04.31-.04-.08l.04.08.04.16.27.71,1.02,2.91c.35.95.55,1.93.79,2.91.16.55.31,1.02.44,1.45l.19,1.54c.16,1.02.32,2.05.44,3.07l.23,3.07c0,4.09-.43,8.26-1.45,12.28-1.14,3.97-2.87,7.83-5.04,11.41-2.28,3.5-5,6.65-8.15,9.44l-2.36,1.97c-.79.71-1.65,1.14-2.52,1.73l-1.18.75-1.5.79-1.54.79-.75.43-.31.16-.12.08v-.08l-.12.08c-.87.43-1.69.63-2.48,1.02h16.77l1.66-1.3c3.78-3.3,7.12-7.12,9.84-11.37,2.6-4.29,4.57-8.94,5.9-13.7,1.26-4.88,1.77-9.84,1.61-14.8-.16-4.92-1.3-9.76-2.75-14.29-.48-1.14-.91-2.24-1.3-3.35l-.43-.83-.04-.28-.08-.08-.08-.24-.23-.39-.75-1.41c-.24-.47-.67-1.02-.98-1.62l-1.1-1.61c-.75-.98-1.5-1.97-2.32-2.87-3.39-3.58-7.48-6.34-11.85-7.91-4.33-1.73-8.98-2.28-13.38-1.89-4.37.32-8.5,1.58-12.16,3.54-.39.2-.87.55-1.38.87-.43.35-.91.67-1.3,1.02-.79.63-1.62,1.42-2.32,2.2-1.3,1.58-2.4,3.3-3.19,5.12-1.58,3.66-1.89,7.56-1.26,11.02.31,1.73.98,3.3,1.73,4.8Z"/>
                <path class="cls-95" d="M647.89,456.76l.51.31q.31.2.63.24c.24.12.79.23,1.22.23.75,0,1.61-.23,2.24-.55.59-.48,1.26-.98,1.57-1.65l.08-.2q.08-.2.08-.28c.12-.16.12-.23.16-.47.08-.43.08-.79,0-1.1-.16-1.34-1.3-2.32-2.32-2.44-.43-.04-1.06.12-1.38.31-.51.31-.67.67-.83,1.02-.16.31-.16.55,0,.91,0,.31.16.43.31.59.28.24.39.28.39.28,0,0-.12-.12-.31-.39-.12-.31-.35-.67,0-1.3.31-.39.91-.79,1.61-.63.75.19,1.42.94,1.42,1.77,0,.2,0,.51-.12.59,0,.08-.08.28-.12.39-.12,0-.12.24-.12.08l-.08.16c-.23.47-.67.71-1.06,1.02-.95.35-1.97.31-2.91-.39-.91-.63-1.58-1.73-1.61-2.87-.16-1.06.35-2.32,1.14-3.26.87-.95,1.93-1.62,3.23-1.81.23-.16.55-.16.83-.16.31,0,.63-.08.98,0,.27.04.47.04.79.08l.98.39c.44.16.99.59,1.54.79.51.47.91.83,1.38,1.22.35.43.67.9.98,1.34.31.51.51.98.75,1.41.12.51.35,1.02.43,1.45.12.44.12.87.24,1.3.12.87-.12,1.61-.12,2.28-.31,1.22-.47,1.93-.47,1.93,0,0,.04-.16.28-.48.08-.31.35-.75.63-1.34.08-.63.43-1.41.43-2.4-.04-.44.12-.91,0-1.46-.04-.55-.2-1.1-.31-1.65-.23-.55-.39-1.18-.67-1.73-.31-.55-.67-1.1-1.02-1.73-.47-.39-.94-.95-1.45-1.42-.63-.39-1.14-.87-1.93-1.26l-.98-.39c-.31-.16-.83-.16-1.3-.23-.31-.16-.75-.08-1.18-.08s-.79,0-1.26.08c-1.58.35-3.19,1.22-4.29,2.52-1.06,1.3-1.85,2.91-1.61,4.8.12,1.81,1.3,3.3,2.64,4.17Z"/>
                <path class="cls-54" d="M780.09,466.79l.16-.12c.23-.04.23,0,.31-.04.16,0,.39,0,.59.04.39.12.71.27.99.55.23.27.43.59.43.87l.12.16v.31c0,.16-.12.39-.12.47-.31.63-.87.87-1.34.87-.27,0-.51-.2-.59-.35-.16-.16-.16-.31-.23-.51,0-.16,0-.31.08-.39.04-.12.16-.16.16-.23.2-.04.32-.08.32-.08,0,0-.12.04-.24.08-.08.16-.24.31-.16.63.08.24.35.51.67.51s.71-.27.79-.67c.08-.08.08-.2.08-.24,0-.08-.08-.16-.08-.23,0,0,0-.08,0-.04v-.04c-.08-.23-.2-.39-.43-.63-.35-.24-.79-.39-1.3-.08-.48.08-.87.55-1.06,1.02-.12.47-.04,1.06.2,1.62.2.51.67.98,1.14,1.22.16.08.27.08.39.16.16.04.27.08.43.08.12,0,.2,0,.39.08l.47-.08c.2-.04.55-.16.83-.24.27-.08.47-.19.71-.35.19-.12.43-.35.63-.44.12-.27.31-.43.43-.59.16-.2.31-.39.44-.55.12-.27.12-.44.23-.59.2-.39.16-.71.2-1.02v-.99s0,.12.12.28c0,.16,0,.39.12.71-.12.23.04.71-.12,1.1,0,.2,0,.47-.12.67s-.2.39-.39.67c-.16.24-.24.55-.48.71-.16.23-.43.47-.63.63-.35.16-.55.31-.83.55-.31.08-.59.23-1.02.31l-.51.08h-.59c-.2,0-.35-.12-.55-.16-.2,0-.43-.16-.51-.16-.71-.35-1.3-.94-1.65-1.65-.35-.71-.51-1.58-.2-2.36.27-.71.91-1.38,1.73-1.54Z"/>
                <path class="cls-19" d="M699.09,427.75l.08-.2q.12-.16.16-.31c.08-.08.19-.35.19-.51,0-.44-.19-.75-.35-1.1-.2-.27-.48-.51-.75-.67l-.12-.08-.08-.08c-.12,0-.12-.04-.23-.04h-.55c-.51.04-1.02.59-1.06,1.06,0,.24.04.55.2.71,0,.2.24.24.35.35.2.04.31.04.47,0,.04,0,.16-.12.27-.16.04-.12.12-.2.12-.2,0,0-.08.08-.24.2-.12.04-.2.16-.55,0-.19-.2-.43-.44-.31-.75.12-.39.44-.67.87-.67h.24c.08,0,.08.04.2.12,0,0,.12,0,.04,0l.08.04c.2.12.31.35.43.51.16.39.16.91-.16,1.34-.27.44-.83.71-1.3.75-.51.04-1.14-.16-1.45-.51-.51-.39-.83-.94-.98-1.5v-1.26l.16-.39c.16-.24.31-.47.47-.71.12-.24.35-.47.51-.67.16-.16.35-.31.63-.47.16-.12.51-.2.67-.35.16-.04.35-.16.63-.2.16-.04.39-.04.59-.04.39-.12.79,0,1.02,0,.63.16.94.2.94.2,0,0-.12,0-.24-.12-.08-.04-.31-.16-.63-.24-.23-.08-.67-.23-1.1-.23-.2,0-.44-.08-.63,0-.27.08-.55.12-.75.12-.35.12-.55.2-.83.31-.28.16-.47.35-.83.51-.16.2-.47.47-.63.71-.24.23-.44.47-.55.87l-.2.47c-.08.16-.12.39-.12.55-.12.19-.12.35-.12.55,0,.24,0,.39.12.63.2.71.55,1.46,1.18,1.97.55.47,1.3.87,2.16.71.87-.08,1.57-.55,1.97-1.22Z"/>
                <g>
                  <g>
                    <path class="cls-34" d="M648.08,489.11c.47-.51.87-.94,1.38-1.53,1.53-1.77,3.7-3.74,5.98-6.06,2.6-2.01,5.28-4.49,8.66-6.57.75-.63,1.62-1.18,2.52-1.73.83-.47,1.73-.87,2.72-1.38,1.02-.51,1.89-1.06,2.87-1.41,1.1-.31,2.05-.71,3.15-1.02,2.01-.91,4.29-1.06,6.5-1.54,2.28-.2,4.57-.39,6.92-.35,2.29.2,4.72.31,7.17,1.02,2.28.43,4.64,1.38,6.96,2.24,2.44.86,4.57,2.28,6.89,3.38,2.13,1.46,4.33,2.84,6.5,4.33,1.97,1.69,4.21,3.15,6.18,4.88,1.85,1.77,3.78,3.35,5.67,5.23.2.24.35.35.51.51h5.08c-.87-1.02-1.85-2.04-2.8-3.03-1.97-1.97-4.01-3.74-5.98-5.63-2.01-1.85-4.21-3.43-6.38-5.15-2.16-1.62-4.61-2.95-6.89-4.53-2.44-1.1-4.8-2.6-7.4-3.47-2.52-.94-5.11-1.89-7.71-2.36-2.48-.71-5.2-.75-7.79-.9-1.18-.2-2.48.12-3.78.16-1.3.16-2.6.04-3.74.35-2.44.67-4.84,1.02-7,2.04-1.1.39-2.16.87-3.23,1.26-.98.47-2.01,1.1-2.99,1.65-.91.55-1.93,1.06-2.87,1.62-.79.59-1.65,1.22-2.48,1.89-3.43,2.29-6.02,5.08-8.46,7.36-2.16,2.52-4.21,4.61-5.63,6.57-.63.75-1.18,1.46-1.62,2.16h1.1Z"/>
                    <path class="cls-24" d="M775.09,474.15c3.11,1.14,6.18.95,8.15-.55,1.93-1.26,2.79-3.03,3.15-4.21.31-1.22.31-1.85.31-1.85,0,0-.08.63-.43,1.85-.31,1.14-1.26,2.75-3.15,4.01-1.89,1.22-4.92,1.34-7.75.2-2.87-1.1-5.79-3.7-6.65-7.4-.98-3.7,0-7.95,2.17-11.65,2.2-3.7,6.18-6.69,10.66-7.63,1.14-.39,2.32-.44,3.62-.44.55,0,1.3-.16,1.73,0l1.85.31c1.14.28,2.44.28,3.58.71l3.46,1.38c4.37,2.12,8.62,5.28,11.22,9.68.79.91,1.14,2.16,1.77,3.23.51,1.18,1.14,2.28,1.3,3.46l.98,3.58c.12,1.26.12,2.56.16,3.82.16,4.88-.98,9.92-2.6,14.29-.31.75-.63,1.46-.98,2.16h2.68c.2-.43.43-.86.59-1.26,1.65-4.76,2.87-9.84,2.76-15.27-.12-1.34-.16-2.6-.2-3.94l-1.1-3.93c-.24-1.42-.99-2.64-1.46-3.86-.67-1.18-1.02-2.56-1.97-3.58-2.91-4.68-7.64-7.99-12.4-10.19l-3.74-1.42c-1.22-.39-2.52-.39-3.82-.63l-1.97-.27c-.86-.12-1.3.04-1.93.04-1.22,0-2.52.08-3.82.48-5.08,1.26-9.13,4.56-11.45,8.66-.35.47-.67.94-.95,1.42l-.59,1.65c-.39,1.02-.71,2.12-.75,3.19-.12,1.02-.43,2.24-.27,3.26,0,.95.16,1.97.47,2.99,1.14,4.02,4.33,6.69,7.36,7.71Z"/>
                  </g>
                  <path class="cls-4" d="M786.9,456.72c1.85.2,2.95-.12,2.95-.04,0-.08-1.1.23-2.87,0-1.81-.24-4.72-1.34-6.69-4.29-1.73-2.95-1.93-7.67-.08-12.16,1.93-4.33,6.42-8.5,12.44-9.06,5.98-.86,12.75.55,18.26,4.57,5.59,4.09,9.49,10.7,10.35,18.18,1.02,7.4-.12,15.27-3.27,22.43-2.16,4.72-5.2,9.02-8.98,12.75h1.5c3.46-3.62,6.3-7.87,8.34-12.36,3.15-7.36,4.29-15.43,3.15-22.99-.87-7.56-5-14.4-10.74-18.5-5.63-4.17-12.59-5.59-18.62-4.61-.79,0-1.61.2-2.28.39-.63.2-1.38.35-2.05.67-1.3.67-2.72,1.22-3.66,2.2-2.29,1.65-3.74,3.94-4.84,6.22-1.77,4.57-1.5,9.29.39,12.36,2.01,2.99,4.96,4.01,6.69,4.21Z"/>
                </g>
                <g>
                  <path class="cls-70" d="M686.85,485.25c1.38.39,2.68.95,3.97,1.38,1.38.59,2.52,1.18,3.7,1.73.44.2.75.47,1.18.75h2.83c-.98-.75-2.04-1.53-3.26-2.24-1.14-.63-2.44-1.34-3.74-1.93-1.3-.59-2.76-1.14-4.09-1.65-2.87-.71-5.71-1.58-8.74-2.44-.86-.24-1.61-.48-2.36-.79l-1.73,1.73c1.18.39,2.36.79,3.58,1.14,2.91.83,5.83,1.58,8.66,2.32Z"/>
                  <path class="cls-40" d="M688.78,489.11h.59c-2.05-1.81-4.25-3.3-6.49-4.56-2.52-1.58-5.2-2.52-7.75-3.35l-.2.27c2.6.79,5.2,1.81,7.79,3.35,2.04,1.26,4.13,2.68,6.06,4.29Z"/>
                </g>
                <g>
                  <g>
                    <path class="cls-96" d="M696.26,465.77c-1.45.28-2.91.48-4.37.75-2.95.16-5.9.43-9.05.63-.87.16-1.73.16-2.56.35l-1.3-2.01c1.26-.24,2.44-.39,3.74-.43,3.03-.16,6.06-.35,8.93-.55,1.46-.12,2.83-.35,4.29-.59,1.3-.27,2.6-.63,3.9-.94,2.48-.87,4.88-1.81,6.69-3.11,1.97-1.14,3.5-2.8,4.68-4.18,1.06-1.53,1.85-2.99,2.32-4.21.91-2.6.91-4.17.91-4.17-.08,0,0-.12.08-.12.04,0,.08.12.08.12h0s.08.39,0,1.1c0,.79-.08,1.89-.47,3.23-.44,1.34-1.06,2.99-2.17,4.64-1.06,1.58-2.6,3.39-4.64,4.72-1.97,1.45-4.41,2.6-7,3.54-1.3.39-2.64.87-4.05,1.22Z"/>
                    <path class="cls-90" d="M708.07,458.88s.23-.27.71-.79c.48-.51,1.14-1.34,1.69-2.36.75-1.02,1.5-2.44,2.16-4.05.63-1.61,1.18-3.5,1.5-5.71.31-2.08.23-4.49-.16-6.92-.39-2.44-1.14-4.88-2.44-7.32-1.3-2.28-3.07-4.64-5.31-6.3-.55-.48-1.06-.95-1.66-1.34l-1.93-.95c-.51-.31-1.3-.43-1.97-.63-.67-.16-1.38-.47-2.13-.47-2.75-.47-5.71.23-8.23,1.34l-1.85,1.02c-.67.35-1.1.87-1.61,1.22l-.79.71c-.24.12-.44.55-.75.75-.31.63-.83,1.18-1.06,1.73-1.22,2.29-1.37,5.12-.55,7.44.75,2.24,2.28,4.29,4.29,5.2,1.89.91,4.05.67,5.55-.16,1.58-.87,2.6-2.16,2.72-3.46.24-1.26-.16-2.29-.47-2.87-.51-.55-.67-.79-.67-.79,0,0,.16.19.67.79.35.55.79,1.58.71,2.91-.08,1.34-1.22,2.75-2.72,3.74-1.58.87-3.9,1.38-6.06.35-.59-.23-1.1-.51-1.54-.94-.55-.28-.87-.79-1.3-1.26-.44-.39-.75-.94-1.06-1.57l-.55-.79c-.08-.27-.23-.63-.31-.94-.87-2.48-.79-5.43.51-8.11.24-.71.71-1.26,1.22-1.81.16-.31.31-.55.63-.91l.83-.67c.59-.51,1.14-1.06,1.65-1.41l2.09-1.18c2.64-1.26,5.75-2.09,8.81-1.58.83,0,1.58.24,2.29.39.79.24,1.57.39,2.2.79l2.16,1.02c.67.44,1.14.87,1.73,1.3,2.4,1.93,4.25,4.33,5.63,6.81,1.42,2.52,2.28,5.2,2.72,7.75.39,2.6.55,5.15.12,7.44-.31,2.2-.87,4.25-1.61,5.99-.39.83-.71,1.65-1.22,2.36-.31.67-.71,1.34-1.06,1.89-.75,1.1-1.41,1.89-1.89,2.44-.44.51-.71.79-.71.79-.24.28-.67.28-.95.08-.27-.24-.31-.67-.04-.95Z"/>
                  </g>
                  <path class="cls-59" d="M679.37,466.13l-.23-.23c2.75-.31,5.63-.83,8.46-1.81,3.62-1.3,7.48-3.03,10.83-5.51,3.46-2.56,6.61-5.67,9.21-9.33,2.64-3.58,4.45-7.83,4.92-12.32.51-4.53-.31-9.13-2.2-13.15-1.97-4.01-5-7.32-8.58-9.6-3.54-2.36-7.79-3.11-11.57-2.13-3.78.95-6.93,3.35-8.66,6.14-2.05,2.91-1.85,6.38-.67,8.81,1.3,2.36,3.38,4.01,5.31,4.33,1.97.24,3.54-.63,4.21-1.34.87-.63,1.1-1.22,1.14-1.18-.04-.04-.27.55-1.02,1.18-.79.79-2.28,1.66-4.33,1.42-2.01-.24-4.09-1.89-5.51-4.33-.55-1.26-1.02-2.76-.98-4.33,0-.79.27-1.62.43-2.44.16-.35.31-.75.47-1.1.2-.39.39-.83.67-1.1,1.77-2.99,4.92-5.47,8.78-6.45,3.94-.95,8.38-.24,11.97,2.12,3.66,2.28,6.77,5.75,8.77,9.84,1.93,4.09,2.87,8.74,2.36,13.34-.51,4.61-2.48,8.98-5.2,12.55-2.6,3.7-5.74,6.85-9.25,9.37-3.42,2.52-7.32,4.25-10.98,5.51-2.87.98-5.63,1.5-8.35,1.73Z"/>
                </g>
                <g>
                  <g>
                    <path class="cls-49" d="M619.58,415.12s-.86.16-2.32.47c-.71.35-1.57.47-2.44,1.1-.35.31-.87.55-1.3.94-.44.35-.83.79-1.3,1.26-.35.39-.79.94-1.1,1.5-.31.55-.63,1.18-.98,1.81-.08.67-.35,1.34-.51,2.05,0,.71-.12,1.5,0,2.08l.08,1.26c.08.31.24.59.35.9.04.31.2.63.44.99.08.31.31.67.63.86.87,1.18,2.16,2.05,3.7,2.4,1.38.35,2.91.31,4.05-.47,1.18-.71,1.93-1.93,2.2-3.23.23-1.34-.28-2.44-1.18-3.23-.44-.35-1.02-.63-1.5-.67l-.35-.04c.16,0-.12,0-.16,0-.04,0-.32,0-.48.04-.16,0-.35.12-.67.2-.79.47-1.3,1.54-1.14,2.44.16.83.95,1.26,1.58,1.41.87,0,1.1-.39,1.38-.71.16-.39.16-.59.16-.59v.67c-.16.16-.24.39-.51.63-.28.28-.63.39-.95.47-.51-.04-.94-.04-1.5-.35-.43-.19-.87-.86-1.06-1.37-.44-1.1,0-2.8,1.41-3.78.2-.23.63-.39,1.14-.55.24-.08.31,0,.59-.08.04,0,.04-.08.31,0h.24c.94,0,1.77.31,2.6.75.75.51,1.34,1.3,1.77,2.17.2.47.39,1.14.39,1.45,0,.27.16.27.16.75l-.16.71c-.2,1.89-1.3,3.9-3.03,4.96-1.93,1.18-4.01,1.26-5.98.79-2.05-.47-3.74-1.73-4.88-3.3-.31-.39-.63-.75-.87-1.18-.2-.47-.43-.87-.59-1.42-.16-.47-.28-.94-.32-1.45l-.04-1.22c-.12-1.06.08-1.77.19-2.68.24-.83.67-1.65.87-2.36.44-.71.75-1.41,1.18-2.05.55-.55,1.06-1.06,1.54-1.61.55-.35,1.06-.83,1.62-1.14.51-.39,1.1-.55,1.61-.79.98-.51,1.97-.55,2.72-.79.75-.04,1.41,0,1.85,0h.55Z"/>
                    <path class="cls-39" d="M648.51,488.72s1.73-1.77,4.92-4.92c1.58-1.61,3.23-3.74,5.24-6.1,2.05-2.36,4.13-5.27,6.3-8.42,1.14-1.62,2.05-3.39,3.07-5.12,1.14-1.81,2.16-3.7,3.11-5.71,1.93-4.01,3.66-8.38,4.96-13.11.55-2.32,1.26-4.72,1.54-7.2.43-2.48.75-5,.87-7.64.31-5.07-.16-10.35-.99-15.43-2.04-10.27-6.34-19.95-11.57-28.06-5.23-8.23-11.57-14.8-17-20.07-5.59-5.31-10.87-9.05-14.41-11.65-3.74-2.52-6.02-3.7-6.02-3.7,0,0,2.09,1.5,5.51,4.29,3.43,2.79,8.15,7.05,13.38,12.52,5.2,5.47,10.9,12.28,15.74,20.31,5.04,7.95,8.94,17.28,10.67,27.04.94,4.88,1.41,9.76,1.22,14.64,0,2.44-.27,4.88-.67,7.24-.27,2.4-.9,4.64-1.41,6.97-1.18,4.49-2.6,8.81-4.33,12.71-.75,2.05-1.73,3.86-2.64,5.67-.98,1.81-1.77,3.62-2.83,5.2-3.82,6.46-7.52,11.61-10.31,15.07-2.71,3.47-4.33,5.47-4.33,5.47Z"/>
                  </g>
                  <path class="cls-83" d="M630.61,349.86c3.39-4.17,6.18,1.02.83,1.57,5.35-.55,3.74,5.12-.47,1.73,4.21,3.38-.98,6.18-1.65.94.67,5.24-5.04,3.62-1.62-.55-3.42,4.17-6.22-.98-.98-1.57-5.24.59-3.62-5.12.55-1.73-4.17-3.38.98-6.18,1.61-.87-.63-5.31,5.12-3.7,1.73.47Z"/>
                </g>
              </g>
              <rect class="cls-26" x="617.07" y="489.23" width="252.45" height="4.64"/>
            </g>
            <g>
              <g>
                <path class="cls-51" d="M257.45,489.11c-.94-.55-2.01-1.18-3.07-1.97,0,0,1.89,1.1,4.64,1.97h6.02c-7.95-6.89-17.91-4.33-17.91-4.33.87,1.73,1.81,3.15,2.79,4.33h7.52Z"/>
                <path class="cls-29" d="M296.73,438.65v-.08c.08-2.36,1.34-5.43,6.22-8.07,0,0-3.94,2.6-5.23,6.61.28-.2.59-.51.87-.59,6.61-2.87,7.99-9.76,7.99-9.76-12.75.16-9.84,11.89-9.84,11.89Z"/>
                <path class="cls-23" d="M201.2,468.8q.04-.08.08-.12c.08-3.46,1.85-7.83,8.97-11.61,0,0-5.71,3.7-7.6,9.56.43-.39.83-.71,1.26-.9,9.56-4.18,11.53-14.09,11.53-14.09-18.38.19-14.25,17.16-14.25,17.16Z"/>
                <path class="cls-92" d="M231.27,449.75s0,.04.04.04c1.69,1.77,3.03,4.92,1.38,10.51,0,0,.98-4.8-1.02-8.78-.04.44-.08.83-.2,1.06-2.76,7.09,1.34,13.15,1.34,13.15,9.21-9.53-1.54-15.98-1.54-15.98Z"/>
                <path class="cls-8" d="M377.61,433.54s.08-.04.08-.04c.79-.91,2.28-1.77,5.12-1.26,0,0-2.44-.2-4.29.98.24,0,.39,0,.59.04,3.54.98,6.38-1.34,6.38-1.34-5.23-4.05-7.87,1.61-7.87,1.61Z"/>
                <path class="cls-18" d="M321.76,439.28h0c-1.26.71-3.19.95-6.02-.79,0,0,2.52,1.22,4.96.71-.2-.08-.43-.2-.59-.24-3.46-2.56-7.4-1.18-7.4-1.18,3.94,6.46,9.05,1.5,9.05,1.5Z"/>
                <path class="cls-45" d="M378.16,445.5c-.08,0-.12-.04-.12-.04-3.31.12-7.67-1.41-11.69-8.15,0,0,3.9,5.35,9.64,6.89-.39-.35-.71-.83-.94-1.14-4.49-9.09-14.21-10.47-14.21-10.47,1.14,17.71,17.32,12.91,17.32,12.91Z"/>
                <path class="cls-85" d="M308.45,489.11c3.5-1.45,6.97-2.68,10.51-3.54,1.81-.48,3.66-.71,5.51-1.06.91-.16,1.77-.39,2.72-.44.91-.12,1.77-.23,2.68-.27.91-.04,1.77-.16,2.64-.27l1.3-.08h6.42c6.69.39,12.83,1.22,18.07,2.83,1.3.35,2.6.79,3.86,1.1,1.18.47,2.32.9,3.46,1.34.31.12.63.27.94.39h4.68c-.47-.39-.94-.71-1.5-.94-.98-.59-2.01-1.1-3.15-1.73-1.06-.51-2.2-1.14-3.42-1.77-1.22-.44-2.52-.91-3.82-1.45-5.31-2.29-11.69-3.74-18.74-4.72-7.08-.75-14.88-.59-22.99.94-8.11,1.42-16.45,4.41-24.24,8.98-.35.27-.71.47-1.06.71h16.14Z"/>
                <path class="cls-9" d="M345.85,476.44c2.72,4.25,6.06,8.07,9.84,11.37l1.65,1.3h16.77c-.83-.39-1.69-.59-2.52-1.02l-.12-.08c.04.08.08.08.04.08l-.08-.08-.39-.16-.75-.43-1.5-.79-1.54-.79-1.22-.75c-.83-.59-1.65-1.02-2.44-1.73l-2.44-1.97c-3.11-2.79-5.83-5.94-8.07-9.44-2.2-3.58-3.9-7.44-5.04-11.41-1.1-4.02-1.5-8.19-1.5-12.28l.2-3.07c.08-1.02.31-2.05.43-3.07l.24-1.54c.16-.43.28-.9.43-1.45.24-.98.43-1.97.79-2.91l1.02-2.91.28-.71.04-.16.04-.08s-.04.08-.04.08c0,0,0-.04,0,0l.2-.35.71-1.45c.12-.28.28-.55.35-.79l.39-.47.67-1.1c.51-.71,1.1-1.5,1.69-2.24,4.92-5.59,12.24-8.78,19.25-8.5,3.46.12,6.89.98,9.92,2.32.47.24.71.39,1.02.55.28.23.59.39.87.59.63.44,1.22.91,1.81,1.45,1.02,1.1,1.93,2.29,2.6,3.58,1.38,2.64,1.89,5.55,1.61,8.31-.12,1.34-.51,2.68-.91,3.93l-.47.79c-.16.31-.28.79-.47.98-.35.35-.67.83-1.06,1.26-1.69,1.62-3.94,2.44-6.06,2.48-.55-.04-1.06-.04-1.54-.08-.55-.16-1.02-.31-1.5-.39-.04,0-.31-.08-.28-.08l-.39-.16c-.2-.16-.51-.24-.67-.39-.31-.31-.67-.39-.94-.79-2.44-2.6-1.5-6.65.32-7.4.87-.55,1.73-.63,2.28-.51.55.04.83.2.83.2,0,0-.28-.16-.79-.35-.55-.12-1.46-.2-2.56.2-.51.23-1.06.63-1.54,1.22-.39.44-.79,1.3-.98,2.05-.47,1.61-.24,3.82,1.1,5.71.28.47.83.91,1.3,1.34.2.16.43.28.67.47l.35.16c.28.24.31.16.47.32.59.19,1.18.39,1.77.67.67.04,1.26.19,1.97.35,2.72.24,5.79-.51,8.38-2.56.63-.55,1.22-1.26,1.81-1.93.28-.31.47-.63.63-.94l.32-.44.16-.19.04-.2.08-.04c.04-.12-.08.16.12-.24.71-1.5,1.38-3.07,1.65-4.8.67-3.46.35-7.36-1.22-11.02-.79-1.81-1.85-3.54-3.23-5.12-.67-.79-1.46-1.58-2.28-2.2-.35-.35-.83-.67-1.3-1.02-.47-.31-.98-.67-1.38-.87-3.66-1.97-7.75-3.22-12.16-3.54-4.41-.39-9.01.16-13.42,1.89-4.33,1.58-8.42,4.33-11.81,7.91-.79.91-1.53,1.89-2.32,2.87l-1.14,1.61c-.35.59-.67,1.14-.91,1.62l-.79,1.41-.2.39-.12.24-.08.08-.08.28-.32.83c-.47,1.1-.91,2.2-1.38,3.35-1.5,4.53-2.56,9.37-2.76,14.29-.08,4.96.39,9.92,1.61,14.8,1.38,4.76,3.31,9.41,5.94,13.7Z"/>
                <path class="cls-33" d="M359.74,456.76l-.51.31c-.32.2-.35.2-.55.24-.28.12-.83.23-1.26.23-.83,0-1.57-.23-2.28-.55-.63-.48-1.22-.98-1.53-1.65l-.08-.2c-.16-.2-.12-.2-.16-.28-.04-.16-.12-.23-.12-.47-.08-.43-.08-.79,0-1.1.2-1.34,1.3-2.32,2.32-2.44.47-.04,1.14.12,1.46.31.39.31.55.67.83,1.02,0,.31.08.55,0,.91-.08.31-.32.43-.39.59-.28.24-.39.28-.39.28,0,0,.12-.12.35-.39.08-.31.32-.67,0-1.3-.35-.39-.94-.79-1.61-.63-.79.19-1.34.94-1.42,1.77,0,.2.08.51.08.59,0,.08.08.28.16.39,0,0,.08.24.08.08l.08.16c.24.47.67.71,1.06,1.02.98.35,2.01.31,2.91-.39.91-.63,1.53-1.73,1.65-2.87.12-1.06-.43-2.32-1.22-3.26-.79-.95-1.93-1.62-3.15-1.81-.28-.16-.59-.16-.91-.16-.28,0-.59-.08-.91,0-.28.04-.51.04-.83.08l-.94.39c-.47.16-1.06.59-1.57.79-.47.47-.91.83-1.38,1.22-.32.43-.67.9-1.02,1.34-.24.51-.47.98-.71,1.41-.16.51-.35,1.02-.47,1.45-.12.44-.12.87-.2,1.3-.16.87.08,1.61.08,2.28.31,1.22.51,1.93.51,1.93,0,0-.08-.16-.28-.48-.12-.31-.39-.75-.59-1.34-.12-.63-.51-1.41-.47-2.4.04-.44-.08-.91,0-1.46.08-.55.2-1.1.28-1.65.24-.55.43-1.18.67-1.73.31-.55.71-1.1,1.06-1.73.51-.39.94-.95,1.46-1.42.67-.39,1.18-.87,1.97-1.26l.94-.39c.39-.16.83-.16,1.26-.23.47-.16.83-.08,1.26-.08.39,0,.79,0,1.22.08,1.61.35,3.19,1.22,4.29,2.52,1.06,1.3,1.85,2.91,1.61,4.8-.12,1.81-1.22,3.3-2.64,4.17Z"/>
                <path class="cls-89" d="M227.61,466.79l-.28-.12c-.16-.04-.16,0-.28-.04-.12,0-.43,0-.59.04-.35.12-.71.27-.94.55-.28.27-.47.59-.51.87l-.04.16c-.04.08,0,.08,0,.12s-.04.12,0,.2c0,.16.04.39.08.47.28.63.91.87,1.38.87.2,0,.47-.2.59-.35.16-.16.16-.31.24-.51,0-.16,0-.31-.08-.39-.08-.12-.2-.16-.24-.23-.16-.04-.24-.08-.24-.08,0,0,.08.04.2.08.12.16.28.31.16.63-.08.24-.28.51-.63.51-.39,0-.75-.27-.83-.67,0-.08-.08-.2-.08-.24,0-.08.08-.16.08-.23,0,0,0-.08,0-.04l.04-.04c.04-.23.2-.39.35-.63.39-.24.83-.39,1.34-.08.51.08.91.55,1.02,1.02.2.47.12,1.06-.12,1.62-.24.51-.71.98-1.22,1.22-.12.08-.24.08-.39.16-.12.04-.24.08-.39.08-.12,0-.24,0-.39.08l-.47-.08c-.2-.04-.55-.16-.83-.24-.24-.08-.47-.19-.71-.35-.24-.12-.39-.35-.63-.44-.12-.27-.35-.43-.47-.59-.16-.2-.24-.39-.35-.55-.12-.27-.16-.44-.24-.59-.2-.39-.2-.71-.28-1.02v-.99s0,.12-.08.28c0,.16-.08.39-.08.71,0,.23-.08.71.08,1.1,0,.2,0,.47.16.67.12.2.2.39.31.67.2.24.31.55.51.71.2.23.39.47.67.63.28.16.51.31.83.55.32.08.59.23.98.31l.51.08h.63c.16,0,.31-.12.51-.16.2,0,.35-.16.55-.16.67-.35,1.26-.94,1.61-1.65.35-.71.47-1.58.2-2.36-.28-.71-.94-1.38-1.65-1.54Z"/>
                <path class="cls-47" d="M308.57,427.75l-.16-.2q-.12-.16-.12-.31c-.08-.08-.12-.35-.12-.51,0-.44.12-.75.28-1.1.2-.27.43-.51.71-.67l.12-.08q.12-.08.16-.08c.08,0,.16-.04.2-.04h.51c.67.04,1.1.59,1.1,1.06.04.24,0,.55-.16.71-.08.2-.24.24-.39.35-.16.04-.28.04-.39,0-.2,0-.28-.12-.31-.16-.08-.12-.16-.2-.16-.2,0,0,.08.08.16.2.2.04.31.16.63,0,.2-.2.39-.44.31-.75-.08-.39-.43-.67-.83-.67h-.28s-.12.04-.2.12h-.04l-.08.04c-.2.12-.35.35-.43.51-.2.39-.2.91.16,1.34.28.44.79.71,1.34.75.47.04,1.1-.16,1.5-.51.47-.39.75-.94.83-1.5.08-.16.12-.24.12-.44,0-.16.04-.27,0-.35-.04-.16-.04-.32-.04-.48l-.16-.39c-.08-.24-.28-.47-.43-.71-.16-.24-.35-.47-.55-.67-.16-.16-.39-.31-.59-.47-.24-.12-.43-.2-.67-.35-.2-.04-.47-.16-.63-.2-.24-.04-.43-.04-.67-.04-.39-.12-.71,0-1.02,0-.59.16-.91.2-.91.2,0,0,.08,0,.24-.12.12-.04.31-.16.63-.24.28-.08.67-.23,1.06-.23.24,0,.47-.08.71,0,.24.08.51.12.79.12.24.12.51.2.79.31.24.16.51.35.79.51.2.2.47.47.71.71.16.23.35.47.51.87l.2.47c.08.16.08.39.12.55.08.19.04.35.04.55,0,.24,0,.39-.08.63-.16.71-.51,1.46-1.14,1.97-.59.47-1.38.87-2.24.71-.79-.08-1.5-.55-1.89-1.22Z"/>
                <g>
                  <g>
                    <path class="cls-74" d="M278.98,489.11c.16-.16.31-.27.47-.51,1.85-1.89,3.86-3.46,5.79-5.23,1.89-1.73,4.13-3.19,6.14-4.88,2.13-1.5,4.33-2.87,6.45-4.33,2.32-1.1,4.53-2.52,6.89-3.38,2.36-.87,4.64-1.81,7.05-2.24,2.36-.71,4.76-.83,7.12-1.02,2.32-.04,4.64.16,6.89.35,2.24.47,4.49.63,6.57,1.54,1.02.31,2.05.71,3.07,1.02.98.35,1.93.9,2.87,1.41.94.51,1.85.91,2.72,1.38.91.55,1.73,1.1,2.56,1.73,3.35,2.08,6.02,4.57,8.62,6.57,2.28,2.32,4.45,4.29,6.02,6.06.51.59.91,1.02,1.34,1.53h1.14c-.51-.71-1.02-1.41-1.61-2.16-1.46-1.97-3.5-4.05-5.67-6.57-2.44-2.28-5.04-5.07-8.42-7.36-.87-.67-1.69-1.3-2.56-1.89-.91-.55-1.89-1.06-2.83-1.62-.98-.55-1.97-1.18-2.99-1.65-1.06-.39-2.13-.87-3.23-1.26-2.16-1.02-4.6-1.37-7.01-2.04-1.18-.31-2.48-.2-3.74-.35-1.26-.04-2.52-.35-3.82-.16-2.56.16-5.24.2-7.79.9-2.64.48-5.16,1.42-7.67,2.36-2.6.87-4.92,2.36-7.4,3.47-2.32,1.57-4.64,2.91-6.89,4.53-2.13,1.73-4.37,3.3-6.38,5.15-2.01,1.89-4.05,3.66-5.94,5.63-.98.99-1.93,2.01-2.87,3.03h5.12Z"/>
                    <path class="cls-62" d="M197.31,489.11h2.68c-.31-.71-.67-1.41-.94-2.16-1.65-4.37-2.72-9.41-2.64-14.29.08-1.26.08-2.56.24-3.82l.87-3.58c.2-1.18.87-2.28,1.38-3.46.55-1.06.94-2.32,1.73-3.23,2.6-4.41,6.85-7.56,11.22-9.68l3.46-1.38c1.18-.43,2.4-.43,3.62-.71l1.81-.31c.43-.16,1.22,0,1.77,0,1.26,0,2.48.04,3.54.44,4.53.94,8.46,3.93,10.74,7.63,2.16,3.7,3.15,7.95,2.16,11.65-.94,3.7-3.82,6.3-6.65,7.4-2.87,1.14-5.86,1.02-7.75-.2-1.89-1.26-2.83-2.87-3.19-4.01-.35-1.22-.43-1.85-.43-1.85,0,0,0,.63.35,1.85.28,1.18,1.18,2.95,3.11,4.21,1.93,1.5,5.08,1.69,8.15.55,2.99-1.02,6.26-3.7,7.36-7.71.31-1.02.51-2.04.51-2.99.12-1.02-.12-2.24-.24-3.26-.12-1.06-.43-2.16-.87-3.19l-.59-1.65c-.24-.48-.59-.95-.87-1.42-2.36-4.09-6.42-7.4-11.45-8.66-1.34-.39-2.6-.48-3.82-.48-.67,0-1.14-.16-2.01-.04l-1.89.27c-1.3.24-2.64.24-3.9.63l-3.74,1.42c-4.76,2.2-9.41,5.51-12.32,10.19-.91,1.02-1.34,2.4-1.93,3.58-.59,1.22-1.3,2.44-1.53,3.86l-1.06,3.93c-.08,1.34-.12,2.6-.2,3.94-.12,5.43,1.02,10.51,2.79,15.27.12.39.35.83.51,1.26Z"/>
                  </g>
                  <path class="cls-31" d="M197.15,489.11h1.46c-3.74-3.74-6.85-8.03-8.97-12.75-3.15-7.16-4.29-15.03-3.27-22.43.83-7.48,4.72-14.09,10.35-18.18,5.51-4.01,12.32-5.43,18.22-4.57,6.06.55,10.59,4.72,12.52,9.06,1.81,4.49,1.61,9.21-.16,12.16-1.97,2.95-4.8,4.05-6.65,4.29-1.81.23-2.83-.08-2.83,0,0-.08,1.02.23,2.91.04,1.81-.2,4.68-1.22,6.73-4.21,1.89-3.07,2.13-7.79.35-12.36-1.06-2.28-2.52-4.57-4.8-6.22-1.02-.98-2.36-1.54-3.7-2.2-.63-.31-1.38-.47-2.09-.67-.67-.2-1.46-.39-2.2-.39-6.02-.98-13.03.44-18.7,4.61-5.75,4.09-9.84,10.94-10.74,18.5-1.06,7.56.08,15.63,3.27,22.99,2.01,4.49,4.84,8.74,8.3,12.36Z"/>
                </g>
                <g>
                  <path class="cls-7" d="M311.96,489.11c.35-.27.71-.55,1.1-.75,1.22-.55,2.44-1.14,3.74-1.73,1.3-.43,2.6-.98,3.98-1.38,2.79-.75,5.71-1.5,8.66-2.32,1.26-.35,2.4-.75,3.62-1.14l-1.69-1.73c-.83.31-1.61.55-2.44.79-2.99.86-5.86,1.73-8.66,2.44-1.46.51-2.87,1.06-4.21,1.65-1.3.59-2.56,1.3-3.78,1.93-1.1.71-2.16,1.5-3.19,2.24h2.87Z"/>
                  <path class="cls-56" d="M318.85,489.11c1.93-1.61,3.98-3.03,6.06-4.29,2.56-1.54,5.27-2.56,7.83-3.35l-.24-.27c-2.6.83-5.23,1.77-7.79,3.35-2.2,1.26-4.45,2.75-6.49,4.56h.63Z"/>
                </g>
                <g>
                  <g>
                    <path class="cls-28" d="M311.41,465.77c1.42.28,2.87.48,4.37.75,2.95.16,5.94.43,9.01.63.87.16,1.73.16,2.56.35l1.34-2.01c-1.26-.24-2.52-.39-3.78-.43-3.07-.16-6.02-.35-8.93-.55-1.42-.12-2.83-.35-4.21-.59-1.34-.27-2.68-.63-3.94-.94-2.52-.87-4.84-1.81-6.81-3.11-1.93-1.14-3.38-2.8-4.61-4.18-1.14-1.53-1.85-2.99-2.36-4.21-.87-2.6-.79-4.17-.79-4.17l-.12-.12c-.08,0-.12.12-.12.12h0s-.08.39,0,1.1c0,.79.12,1.89.47,3.23.39,1.34,1.06,2.99,2.13,4.64,1.18,1.58,2.64,3.39,4.68,4.72,2.01,1.45,4.41,2.6,7.01,3.54,1.34.39,2.68.87,4.09,1.22Z"/>
                    <path class="cls-17" d="M299.6,458.88s-.24-.27-.71-.79c-.47-.51-1.1-1.34-1.77-2.36-.71-1.02-1.5-2.44-2.09-4.05-.67-1.61-1.22-3.5-1.5-5.71-.35-2.08-.28-4.49.08-6.92.43-2.44,1.22-4.88,2.48-7.32,1.34-2.28,3.11-4.64,5.27-6.3.59-.48,1.18-.95,1.73-1.34l1.85-.95c.59-.31,1.3-.43,2.05-.63.63-.16,1.3-.47,2.05-.47,2.79-.47,5.71.23,8.27,1.34l1.85,1.02c.63.35,1.1.87,1.61,1.22l.83.71c.2.12.43.55.67.75.43.63.87,1.18,1.14,1.73,1.14,2.29,1.3,5.12.59,7.44-.87,2.24-2.36,4.29-4.33,5.2-1.93.91-4.09.67-5.59-.16-1.57-.87-2.6-2.16-2.76-3.46-.16-1.26.2-2.29.51-2.87.47-.55.71-.79.71-.79,0,0-.28.19-.71.79-.35.55-.79,1.58-.67,2.91.08,1.34,1.14,2.75,2.72,3.74,1.61.87,3.9,1.38,6.02.35.59-.23,1.1-.51,1.57-.94.47-.28.87-.79,1.26-1.26.47-.39.79-.94,1.1-1.57l.47-.79c.12-.27.2-.63.35-.94.87-2.48.79-5.43-.51-8.11-.28-.71-.67-1.26-1.1-1.81-.28-.31-.39-.55-.75-.91l-.83-.67c-.55-.51-1.06-1.06-1.69-1.41l-1.97-1.18c-2.72-1.26-5.83-2.09-8.93-1.58-.79,0-1.5.24-2.24.39-.79.24-1.54.39-2.24.79l-2.09,1.02c-.63.44-1.18.87-1.77,1.3-2.4,1.93-4.21,4.33-5.63,6.81-1.42,2.52-2.24,5.2-2.68,7.75-.43,2.6-.51,5.15-.16,7.44.31,2.2.91,4.25,1.65,5.99.31.83.67,1.65,1.1,2.36.39.67.75,1.34,1.18,1.89.75,1.1,1.42,1.89,1.85,2.44.47.51.71.79.71.79.24.28.67.28.91.08.32-.24.32-.67.12-.95Z"/>
                  </g>
                  <path class="cls-65" d="M328.25,466.13l.16-.23c-2.68-.31-5.51-.83-8.3-1.81-3.74-1.3-7.48-3.03-10.94-5.51-3.39-2.56-6.53-5.67-9.13-9.33-2.68-3.58-4.53-7.83-4.96-12.32-.51-4.53.31-9.13,2.2-13.15,1.97-4.01,4.96-7.32,8.58-9.6,3.54-2.36,7.83-3.11,11.57-2.13,3.82.95,6.93,3.35,8.66,6.14,2.01,2.91,1.81,6.38.71,8.81-1.3,2.36-3.39,4.01-5.35,4.33-2.01.24-3.5-.63-4.25-1.34-.83-.63-1.06-1.22-1.1-1.18.04-.04.28.55,1.06,1.18.79.79,2.24,1.66,4.33,1.42,2.01-.24,4.09-1.89,5.47-4.33.59-1.26,1.06-2.76.94-4.33.04-.79-.24-1.62-.43-2.44-.08-.35-.28-.75-.43-1.1-.16-.39-.39-.83-.67-1.1-1.81-2.99-4.96-5.47-8.82-6.45-3.86-.95-8.38-.24-11.93,2.12-3.66,2.28-6.77,5.75-8.78,9.84-2.01,4.09-2.87,8.74-2.36,13.34.55,4.61,2.44,8.98,5.16,12.55,2.68,3.7,5.83,6.85,9.33,9.37,3.42,2.52,7.28,4.25,10.98,5.51,2.83.98,5.59,1.5,8.3,1.73Z"/>
                </g>
                <g>
                  <g>
                    <path class="cls-32" d="M388,415.12s.87.16,2.36.47c.71.35,1.57.47,2.4,1.1.39.31.91.55,1.34.94.43.35.83.79,1.3,1.26.35.39.75.94,1.14,1.5.28.55.59,1.18.91,1.81.16.67.39,1.34.51,2.05,0,.71.16,1.5.08,2.08l-.12,1.26c-.08.31-.24.59-.32.9-.08.31-.28.63-.47.99-.16.31-.32.67-.63.86-.87,1.18-2.13,2.05-3.62,2.4-1.42.35-2.99.31-4.09-.47-1.18-.71-1.97-1.93-2.2-3.23-.28-1.34.24-2.44,1.14-3.23.47-.35,1.02-.63,1.61-.67l.16-.04c-.08,0,.12,0,.2,0s.39,0,.47.04c.2,0,.39.12.67.2.83.47,1.38,1.54,1.14,2.44-.12.83-.91,1.26-1.54,1.41-.83,0-1.06-.39-1.38-.71-.16-.39-.2-.59-.2-.59,0,0,.04.2.08.67.12.16.2.39.47.63.28.28.63.39.94.47.47-.04.94-.04,1.42-.35.47-.19.94-.86,1.14-1.37.39-1.1,0-2.8-1.34-3.78-.31-.23-.67-.39-1.18-.55-.24-.08-.35,0-.63-.08-.08,0,0-.08-.31,0h-.28c-.87,0-1.73.31-2.48.75-.75.51-1.42,1.3-1.89,2.17-.16.47-.35,1.14-.35,1.45-.04.27-.08.27-.08.75l.08.71c.2,1.89,1.26,3.9,3.07,4.96,1.85,1.18,4.05,1.26,5.98.79,2.01-.47,3.7-1.73,4.88-3.3.35-.39.59-.75.79-1.18.24-.47.47-.87.63-1.42.12-.47.28-.94.31-1.45l.12-1.22c0-1.06-.2-1.77-.28-2.68-.24-.83-.63-1.65-.91-2.36-.35-.71-.75-1.41-1.18-2.05-.51-.55-1.02-1.06-1.5-1.61-.55-.35-1.1-.83-1.57-1.14-.55-.39-1.14-.55-1.65-.79-.98-.51-2.01-.55-2.76-.79-.79-.04-1.34,0-1.77,0h-.63Z"/>
                    <path class="cls-77" d="M359.15,488.72s-1.77-1.77-4.92-4.92c-1.53-1.61-3.27-3.74-5.31-6.1-2.05-2.36-4.05-5.27-6.26-8.42-1.1-1.62-2.05-3.39-3.11-5.12-1.06-1.81-2.16-3.7-3.03-5.71-1.97-4.01-3.74-8.38-5-13.11-.55-2.32-1.26-4.72-1.54-7.2-.43-2.48-.75-5-.79-7.64-.39-5.07.08-10.35.94-15.43,2.05-10.27,6.3-19.95,11.61-28.06,5.16-8.23,11.45-14.8,16.96-20.07,5.59-5.31,10.78-9.05,14.41-11.65,3.74-2.52,5.98-3.7,5.98-3.7,0,0-2.09,1.5-5.51,4.29-3.46,2.79-8.19,7.05-13.42,12.52-5.2,5.47-10.82,12.28-15.7,20.31-5,7.95-8.93,17.28-10.71,27.04-.91,4.88-1.38,9.76-1.1,14.64,0,2.44.28,4.88.63,7.24.2,2.4.87,4.64,1.38,6.97,1.18,4.49,2.6,8.81,4.29,12.71.79,2.05,1.77,3.86,2.68,5.67.94,1.81,1.77,3.62,2.83,5.2,3.82,6.46,7.52,11.61,10.31,15.07,2.76,3.47,4.37,5.47,4.37,5.47Z"/>
                  </g>
                  <path class="cls-11" d="M377.02,349.86c-3.31-4.17-6.18,1.02-.83,1.57-5.35-.55-3.7,5.12.47,1.73-4.17,3.38,1.02,6.18,1.57.94-.55,5.24,5.08,3.62,1.77-.55,3.31,4.17,6.14-.98.83-1.57,5.31.59,3.66-5.12-.47-1.73,4.13-3.38-.98-6.18-1.61-.87.63-5.31-5.04-3.7-1.73.47Z"/>
                </g>
              </g>
              <rect class="cls-1" x="138.11" y="489.23" width="268.78" height="4.64"/>
            </g>
          </g>
        </g>
      </g>
      <path class="cls-69" d="M466.28,420.2c-2.6,0-3.89-.75-3.89-2.2,0-1.18.71-1.73,2.16-1.73l2.91.28c2.13,0,3.62-1.02,4.49-3.11.9-2.32,1.37-6.69,1.37-13.07v-42.23c0-6.53-.35-10.67-1.06-12.36-.67-1.69-1.42-2.76-2.16-3.19-.71-.39-1.62-.63-2.64-.63l-2.91.28c-1.46,0-2.16-.59-2.16-1.77,0-1.46,1.1-2.2,3.26-2.2s4.29.12,6.26.47c2.01.31,4.05.47,6.18.47s4.17-.16,6.06-.47c1.93-.35,3.97-.47,6.14-.47s3.31.75,3.31,2.2c0,1.18-.75,1.77-2.16,1.77l-2.87-.28c-2.16,0-3.66,1.02-4.49,3.11-.9,2.28-1.37,6.65-1.37,13.07v13.58h42.27v-13.58c0-6.53-.35-10.67-1.06-12.36-.71-1.69-1.41-2.76-2.12-3.19-.75-.39-1.65-.63-2.68-.63l-2.95.28c-1.41,0-2.12-.59-2.12-1.77,0-1.46,1.1-2.2,3.27-2.2s4.29.12,6.26.47c1.97.31,4.01.47,6.18.47s4.17-.16,6.06-.47c1.89-.35,3.94-.47,6.14-.47s3.3.75,3.3,2.2c0,1.18-.71,1.77-2.16,1.77l-2.87-.28c-2.16,0-3.66,1.02-4.49,3.11-.91,2.28-1.38,6.65-1.38,13.07v42.23c0,6.49.35,10.59,1.06,12.28.71,1.73,1.38,2.83,2.12,3.26.75.44,1.65.63,2.68.63l2.87-.28c1.45,0,2.16.55,2.16,1.73,0,1.45-1.3,2.2-3.86,2.2-1.3,0-2.68-.12-4.17-.39-2.28-.31-4.72-.51-7.36-.51s-4.96.16-6.97.47c-2.04.32-3.7.44-4.96.44-2.6,0-3.9-.75-3.9-2.2,0-1.18.71-1.73,2.12-1.73l2.95.28c2.16,0,3.62-1.02,4.49-3.11.91-2.32,1.38-6.69,1.38-13.07v-22.95h-42.27v22.95c0,6.49.35,10.59,1.06,12.28.67,1.73,1.42,2.83,2.13,3.26.75.44,1.65.63,2.68.63l2.87-.28c1.41,0,2.16.55,2.16,1.73,0,1.45-1.3,2.2-3.82,2.2-1.34,0-2.71-.12-4.21-.39-4.76-.75-8.86-.87-12.28-.35-3.39.51-5.75.75-7.01.75Z"/>
    </g>
  </g>
  <g>
    <path class="cls-97" d="M391.71,551.64v7.93c0,1.31.07,2.13.22,2.45.14.33.43.61.85.86s.99.37,1.71.37h.85v.7h-13.38v-.7h.85c.74,0,1.34-.13,1.79-.4.33-.18.58-.48.75-.91.14-.3.21-1.09.21-2.38v-16.84c0-1.31-.07-2.13-.21-2.45s-.42-.61-.84-.86c-.42-.25-.99-.37-1.71-.37h-.85v-.7h13.38v.7h-.85c-.74,0-1.34.13-1.79.4-.33.18-.58.48-.77.91-.14.3-.21,1.09-.21,2.38v7.25h9.04v-7.25c0-1.31-.07-2.13-.21-2.45-.14-.33-.42-.61-.85-.86-.43-.25-1-.37-1.72-.37h-.83v-.7h13.36v.7h-.83c-.75,0-1.35.13-1.79.4-.33.18-.58.48-.77.91-.14.3-.21,1.09-.21,2.38v16.84c0,1.31.07,2.13.21,2.45s.42.61.85.86c.43.25,1,.37,1.72.37h.83v.7h-13.36v-.7h.83c.75,0,1.35-.13,1.79-.4.33-.18.59-.48.77-.91.14-.3.21-1.09.21-2.38v-7.93h-9.04Z"/>
    <path class="cls-16" d="M420.84,545.77c1.54,0,2.96.4,4.28,1.19s2.32,1.92,3.01,3.38c.69,1.46,1.03,3.06,1.03,4.79,0,2.5-.64,4.6-1.91,6.29-1.54,2.04-3.66,3.06-6.36,3.06s-4.7-.93-6.13-2.79-2.15-4.02-2.15-6.47.73-4.73,2.2-6.62c1.47-1.88,3.48-2.82,6.03-2.82ZM420.91,547.11c-.64,0-1.19.24-1.65.73-.46.48-.76,1.44-.91,2.87-.14,1.43-.22,3.41-.22,5.95,0,1.35.09,2.61.26,3.78.14.89.43,1.57.89,2.04.45.47.97.7,1.55.7s1.04-.16,1.42-.47c.49-.43.82-1.03.98-1.79.25-1.2.38-3.61.38-7.25,0-2.14-.12-3.61-.36-4.41-.24-.8-.59-1.38-1.06-1.75-.33-.26-.76-.4-1.28-.4Z"/>
    <path class="cls-5" d="M448.89,546.3v13.82c0,1.35.13,2.19.38,2.52.25.33.76.54,1.53.63v.68h-7.19v-2.36c-.84,1.01-1.69,1.74-2.53,2.2-.84.46-1.79.69-2.83.69s-1.88-.3-2.65-.92c-.77-.61-1.29-1.32-1.56-2.14-.26-.82-.4-2.25-.4-4.28v-7c0-1.33-.12-2.16-.37-2.49-.25-.33-.76-.54-1.54-.64v-.7h7.19v12.06c0,1.26.06,2.07.18,2.43.12.37.31.64.57.83.26.19.56.28.9.28.45,0,.86-.12,1.23-.36.5-.33,1.11-.99,1.81-1.98v-9.44c0-1.33-.12-2.16-.37-2.49s-.76-.54-1.54-.64v-.7h7.19Z"/>
    <path class="cls-64" d="M464.5,545.81l.28,6.02h-.64c-.77-1.79-1.56-3.01-2.39-3.66s-1.65-.98-2.46-.98c-.52,0-.96.17-1.32.52-.37.35-.55.75-.55,1.2,0,.34.13.67.38.98.4.52,1.53,1.4,3.38,2.65,1.85,1.25,3.07,2.32,3.65,3.19.59.87.88,1.85.88,2.93,0,.98-.25,1.94-.74,2.89-.49.94-1.18,1.67-2.08,2.17s-1.88.75-2.96.75c-.84,0-1.97-.26-3.38-.79-.38-.14-.64-.21-.77-.21-.42,0-.76.31-1.04.94h-.62l-.3-6.34h.64c.57,1.66,1.34,2.91,2.33,3.74s1.92,1.25,2.8,1.25c.6,0,1.1-.19,1.48-.56.38-.37.58-.82.58-1.35,0-.6-.19-1.13-.57-1.57s-1.22-1.11-2.53-2c-1.93-1.33-3.17-2.35-3.74-3.06-.83-1.03-1.25-2.17-1.25-3.42,0-1.36.47-2.59,1.41-3.69.94-1.1,2.29-1.65,4.07-1.65.96,0,1.88.23,2.77.7.34.19.62.28.83.28.23,0,.41-.05.55-.14.14-.09.36-.36.66-.8h.64Z"/>
    <path class="cls-72" d="M483.33,554.49h-9.68c.11,2.34.74,4.19,1.87,5.55.87,1.04,1.91,1.57,3.13,1.57.75,0,1.44-.21,2.06-.63s1.28-1.18,1.98-2.27l.64.42c-.96,1.95-2.01,3.33-3.17,4.14-1.16.81-2.5,1.22-4.02,1.22-2.62,0-4.6-1.01-5.95-3.02-1.08-1.62-1.62-3.64-1.62-6.04,0-2.94.8-5.29,2.39-7.03,1.59-1.74,3.46-2.61,5.6-2.61,1.79,0,3.34.73,4.65,2.2,1.31,1.47,2.02,3.64,2.12,6.52ZM478.69,553.23c0-2.03-.11-3.42-.33-4.17-.22-.75-.56-1.33-1.03-1.72-.26-.23-.62-.34-1.06-.34-.65,0-1.19.32-1.6.96-.74,1.12-1.11,2.66-1.11,4.61v.66h5.13Z"/>
    <path class="cls-25" d="M508.83,537.99c4.08-.15,7.39,1.04,9.94,3.57,2.55,2.53,3.82,5.69,3.82,9.49,0,3.25-.95,6.1-2.85,8.57-2.52,3.27-6.07,4.91-10.66,4.91s-8.17-1.56-10.68-4.68c-1.99-2.47-2.98-5.39-2.98-8.78,0-3.8,1.29-6.97,3.88-9.5s5.77-3.73,9.54-3.58ZM509.06,539.2c-2.34,0-4.12,1.2-5.34,3.59-.99,1.96-1.49,4.78-1.49,8.46,0,4.37.77,7.59,2.3,9.68,1.07,1.46,2.57,2.19,4.49,2.19,1.3,0,2.38-.31,3.25-.94,1.11-.8,1.97-2.09,2.59-3.86.62-1.77.92-4.07.92-6.92,0-3.38-.31-5.92-.94-7.6-.63-1.68-1.43-2.87-2.41-3.56-.97-.69-2.1-1.04-3.37-1.04Z"/>
    <path class="cls-6" d="M533.01,548.15v12.25c0,1.18.13,1.93.38,2.23.4.47,1.14.68,2.23.64v.68h-10.4v-.68c.79-.01,1.36-.1,1.69-.27.33-.17.56-.41.69-.71s.19-.93.19-1.89v-12.25h-2.57v-1.85h2.57v-1.3l-.02-.89c0-1.81.66-3.32,1.99-4.53,1.33-1.21,3.12-1.81,5.39-1.81,1.55,0,2.7.29,3.44.87.75.58,1.12,1.22,1.12,1.93,0,.57-.23,1.06-.7,1.47-.47.42-1.08.62-1.85.62-.65,0-1.17-.17-1.56-.51-.38-.34-.58-.72-.58-1.13,0-.11.04-.35.11-.7.05-.21.08-.42.08-.6,0-.26-.08-.46-.23-.58-.2-.19-.45-.28-.74-.28-.37,0-.67.15-.92.45-.25.3-.37.79-.37,1.45l.04,3.3v2.25h2.6v1.85h-2.6Z"/>
    <path class="cls-10" d="M552,539.05v-.7h13.61v.7h-.83c-.75,0-1.36.13-1.81.4-.31.18-.57.48-.75.91-.14.3-.21,1.09-.21,2.38v12.53c0,2.45-.25,4.24-.74,5.35-.49,1.11-1.36,2.04-2.61,2.79-1.25.75-2.76,1.12-4.52,1.12-2.15,0-3.89-.57-5.22-1.7-1.33-1.13-1.99-2.38-1.99-3.76,0-.88.27-1.59.81-2.14.54-.55,1.2-.82,1.98-.82s1.41.25,1.93.74c.52.49.78,1.09.78,1.81,0,.35-.04.66-.13.92-.05.13-.25.44-.59.95-.35.51-.52.87-.52,1.09,0,.33.16.61.49.85.48.35,1.1.53,1.87.53.54,0,.99-.14,1.34-.42.35-.28.6-.71.75-1.29.14-.58.22-2.21.22-4.88v-13.68c0-1.31-.07-2.13-.22-2.45s-.43-.61-.85-.86c-.42-.25-.99-.37-1.71-.37h-1.08Z"/>
    <path class="cls-44" d="M576.88,561.34c-2.15,1.9-4.08,2.85-5.79,2.85-1.01,0-1.84-.33-2.51-.99-.67-.66-1-1.49-1-2.48,0-1.35.58-2.56,1.74-3.63,1.16-1.08,3.68-2.51,7.57-4.29v-1.77c0-1.33-.07-2.17-.22-2.52-.15-.35-.42-.65-.82-.91-.4-.26-.86-.39-1.36-.39-.82,0-1.49.18-2.02.55-.33.23-.49.49-.49.79,0,.26.18.59.53.98.48.54.72,1.06.72,1.57,0,.62-.23,1.14-.69,1.58-.46.43-1.06.65-1.8.65-.79,0-1.46-.24-1.99-.72-.54-.48-.8-1.04-.8-1.68,0-.91.36-1.77,1.08-2.6.72-.82,1.72-1.46,3-1.9,1.28-.44,2.62-.66,4-.66,1.67,0,3,.36,3.97,1.07.98.71,1.61,1.48,1.9,2.31.18.53.26,1.74.26,3.64v6.85c0,.81.03,1.31.09,1.52.06.21.16.36.28.46.12.1.27.15.43.15.33,0,.66-.23,1-.7l.57.45c-.63.93-1.28,1.61-1.95,2.03-.67.42-1.44.63-2.29.63-1.01,0-1.79-.24-2.36-.71-.57-.47-.91-1.19-1.04-2.14ZM576.88,559.96v-5.91c-1.52.89-2.66,1.85-3.4,2.87-.49.68-.74,1.37-.74,2.06,0,.58.21,1.09.62,1.53.31.34.75.51,1.32.51.63,0,1.36-.35,2.19-1.06Z"/>
    <path class="cls-37" d="M593.3,538.35v9.72c1.49-1.54,3.11-2.3,4.87-2.3,1.21,0,2.35.36,3.42,1.07s1.91,1.72,2.51,3.03c.6,1.31.91,2.82.91,4.53,0,1.93-.38,3.67-1.15,5.25-.77,1.57-1.79,2.77-3.08,3.6s-2.75,1.24-4.4,1.24c-.96,0-1.81-.15-2.55-.45-.74-.3-1.47-.79-2.19-1.47l-2.92,1.91h-.64v-22.44c0-1.02-.04-1.65-.13-1.89-.13-.35-.32-.61-.59-.78s-.73-.27-1.37-.29v-.7h7.32ZM593.3,549.75v7.85c0,1.6.04,2.62.11,3.06.13.74.43,1.34.91,1.8s1.09.69,1.83.69c.64,0,1.19-.18,1.65-.55.46-.37.84-1.09,1.15-2.17s.46-3.03.46-5.85-.34-4.56-1.02-5.57c-.49-.73-1.15-1.09-1.98-1.09-1.08,0-2.12.61-3.11,1.83Z"/>
    <path class="cls-43" d="M616.06,564.66l-5.7-13.08c-.86-1.98-1.49-3.19-1.9-3.64-.41-.45-.9-.77-1.48-.94v-.7h9.38v.7c-.62.03-1.05.14-1.3.36s-.38.47-.38.77c0,.48.31,1.42.94,2.83l3.02,6.91,2.06-5.34c.74-1.9,1.11-3.22,1.11-3.96,0-.47-.15-.84-.46-1.11-.31-.28-.85-.43-1.63-.45v-.7h5.91v.7c-.58.06-1.05.29-1.42.67-.37.38-.98,1.69-1.83,3.92l-5.04,13.08c-1.27,3.27-2.21,5.29-2.83,6.04-.87,1.06-1.96,1.59-3.26,1.59-1.04,0-1.89-.3-2.54-.9s-.97-1.32-.97-2.16c0-.73.22-1.33.67-1.81.45-.48,1-.72,1.65-.72s1.14.2,1.52.6c.38.4.58,1.03.59,1.87.01.48.07.79.17.92.1.14.25.21.43.21.3,0,.62-.18.96-.55.5-.53,1.09-1.74,1.77-3.62l.55-1.47Z"/>
  </g>
  <g>
    <path class="cls-35" d="M284.55,579.83c1.22,0,2.16.44,2.82,1.31.53.69.79,1.53.79,2.52,0,1.77-.59,3.79-1.78,6.05-1.04,1.95-2.33,3.7-3.89,5.25-1.02,1-1.82,1.5-2.41,1.5-.38,0-.74-.19-1.07-.57-.24-.27-.36-.58-.36-.93,0-.64.56-1.37,1.67-2.19,1.57-1.17,2.82-2.44,3.75-3.83,1.37-2.01,2.05-3.7,2.05-5.09,0-.57-.12-.99-.37-1.26-.25-.27-.62-.41-1.11-.41-1,0-2.43.73-4.27,2.19-2.1,1.64-4.31,3.88-6.65,6.7-2.97,3.59-5.23,7.13-6.79,10.62-1.61,3.61-2.41,6.69-2.41,9.25,0,1.22.36,2.26,1.07,3.12.78.97,1.74,1.45,2.87,1.45,1.97,0,4.45-1.53,7.44-4.6.89-.93,1.98-2.28,3.26-4.05.84-1.13,1.38-1.93,1.61-2.41.27-.53.59-.79.96-.79.4,0,.6.19.6.57,0,.82-1.02,2.66-3.06,5.53-1.7,2.39-3.57,4.34-5.61,5.86-2.3,1.7-4.47,2.54-6.51,2.54s-3.79-.96-4.95-2.87c-.75-1.22-1.12-2.62-1.12-4.19,0-3.94,1.86-8.91,5.58-14.91,3.17-5.11,6.52-9.22,10.04-12.34,3.05-2.68,5.65-4.02,7.83-4.02Z"/>
    <path class="cls-27" d="M288.3,606.02c1.79-1.92,3.85-3.79,6.18-5.61.84-.66,1.73-1.27,2.68-1.83.47-.27.78-.41.9-.41.27,0,.55.2.82.6.16.22.25.42.25.6,0,.33-.35.78-1.04,1.34-1.86,1.48-2.79,2.59-2.79,3.34,0,.42.24.63.71.63.78,0,2.13-.65,4.05-1.94.33-.22.6-.33.82-.33.15,0,.29.07.44.22.16.16.25.34.25.52,0,.55-.77,1.39-2.3,2.52-1.61,1.2-3.13,1.81-4.57,1.81-.58,0-1.12-.16-1.61-.46-.42-.26-.63-.71-.63-1.37,0-.46.19-.98.57-1.56-1.44,1.02-3.14,2.77-5.09,5.25-1.13,1.53-2.25,3.42-3.37,5.66-.42.84-.94,1.26-1.56,1.26-.67,0-1.01-.32-1.01-.96s.53-2.28,1.59-4.98c1.57-4.01,3.21-7.12,4.93-9.33,1.06-1.37,1.94-2.05,2.65-2.05.24,0,.46.07.66.22.24.18.36.41.36.68s-.18.66-.55,1.15c-.07.09-.56.7-1.45,1.83-.82,1.08-1.45,2.14-1.89,3.2Z"/>
    <path class="cls-41" d="M308.49,610.5c-.6,1.06-1.19,1.95-1.78,2.68-1.15,1.42-2.29,2.13-3.42,2.13-.99,0-1.75-.46-2.3-1.4-.35-.6-.52-1.31-.52-2.13,0-2.03.64-4.26,1.92-6.7,1.42-2.72,3.14-4.81,5.14-6.27,1.31-.95,2.58-1.42,3.8-1.42.77,0,1.4.24,1.92.71.44.42.66.89.66,1.42,0,.4-.16.96-.47,1.67.27.38.41.72.41,1.01,0,.38-.26,1.01-.77,1.89-.53.89-1.06,2.08-1.59,3.56-.57,1.57-.85,2.83-.85,3.78,0,.77.23,1.4.68,1.89.13.13.5.34,1.12.63.46.22.68.6.68,1.15,0,.35-.13.63-.38.85-.27.24-.59.36-.96.36-.98,0-1.83-.44-2.54-1.31-.58-.71-.88-1.61-.88-2.68,0-.36.04-.97.11-1.81ZM311.91,601.5c-.22-.4-.46-.7-.71-.89-.26-.19-.53-.29-.82-.29-1.39,0-2.89,1.21-4.51,3.64-1.79,2.68-2.68,4.95-2.68,6.81,0,.46.09.8.26,1.04.17.24.43.36.78.36.88,0,1.9-.93,3.06-2.79.66-1.02,1.47-2.53,2.44-4.51.64-1.29,1.1-2.15,1.4-2.57.15-.22.41-.48.79-.79Z"/>
    <path class="cls-66" d="M319.46,602.1c2.79-6.02,5.52-10.92,8.18-14.69,1.81-2.55,3.3-4.41,4.49-5.58.82-.82,1.52-1.23,2.11-1.23.22,0,.41.07.57.22.26.18.38.43.38.74,0,.4-.32.98-.96,1.72-4.03,4.6-7.68,10.11-10.94,16.53,2.92-1.11,4.95-1.67,6.1-1.67.84,0,1.53.21,2.08.63.56.44.85.94.85,1.5,0,.29-.1.56-.3.79-.27.35-.63.52-1.07.52-.31,0-.92-.25-1.83-.77-.26-.13-.58-.19-.98-.19-1.82,0-4.01.83-6.57,2.49,1.09.51,1.87,1.19,2.33,2.02.62,1.19.93,2.65.93,4.38,0,4.47-1.33,9.18-3.99,14.15-1.15,2.12-2.26,3.72-3.34,4.82-1.15,1.19-2.33,1.78-3.53,1.78-.91,0-1.65-.44-2.22-1.31-.46-.73-.68-1.72-.68-2.98,0-2.7,1.02-6.76,3.06-12.18.26-.66.98-2.34,2.19-5.06.31-.67.61-1.4.9-2.16-.15.04-.28.05-.41.05-.49,0-.74-.27-.74-.82,0-.97,1.13-2.2,3.39-3.69ZM320.39,605.69c-1.02,1.93-2.37,5.05-4.05,9.36-1.73,4.4-2.6,7.81-2.6,10.23,0,.47.12.89.36,1.26.26.36.56.55.9.55,1.13,0,2.62-1.9,4.46-5.69,2.08-4.23,3.12-8.11,3.12-11.63,0-1.37-.26-2.4-.79-3.09-.2-.27-.67-.6-1.4-.98Z"/>
    <path class="cls-61" d="M339.27,597.4c-1.19,1.84-2.28,3.9-3.28,6.18-1.44,3.25-2.16,5.67-2.16,7.28,0,.46.1.8.29,1.04s.48.36.86.36c.91,0,2.02-.86,3.31-2.57.82-1.06,1.55-2.12,2.19-3.17.35-.6.72-.9,1.12-.9.24,0,.44.08.6.25.15.16.22.33.22.49,0,.67-.89,2.18-2.65,4.51-2.12,2.81-4.05,4.21-5.8,4.21-.93,0-1.71-.43-2.33-1.29-.38-.55-.57-1.32-.57-2.33,0-2.21.64-4.78,1.92-7.71.31-.73,1.17-2.49,2.57-5.28-.49.13-.87.19-1.12.19-.38,0-.72-.09-1.01-.27-.4-.25-.6-.57-.6-.96,0-.46.26-.82.79-1.09.15-.07.82-.19,2.02-.36.44-.07,1.08-.25,1.92-.52.64-1.15,1.68-2.71,3.12-4.68.8-1.09,1.36-1.81,1.67-2.13.44-.46.82-.68,1.15-.68.24,0,.47.13.71.38.22.24.33.47.33.71,0,.47-.51,1.41-1.53,2.82-.67.91-1.18,1.65-1.5,2.22,2.02-.55,3.48-.82,4.35-.82,1,0,1.5.42,1.5,1.26,0,.42-.17.73-.52.93-.18.11-.66.2-1.42.27-.31-.02-1.69.33-4.13,1.04-.67.2-1.34.41-2,.63Z"/>
    <path class="cls-60" d="M345.07,609.76v.49c0,.4.1.75.3,1.04.46.68,1.2,1.01,2.24,1.01,2.28,0,4.92-1.75,7.91-5.25.53-.6.98-.9,1.34-.9.2,0,.38.1.55.3.11.15.16.28.16.41,0,.71-.88,1.92-2.63,3.61-1.37,1.33-2.83,2.42-4.38,3.26-1.55.84-2.99,1.26-4.32,1.26s-2.44-.47-3.23-1.42c-.53-.66-.79-1.55-.79-2.68,0-3.08,1.45-6.1,4.35-9.06,2.35-2.41,4.4-3.61,6.16-3.61.47,0,.9.15,1.29.44.47.38.71.89.71,1.5,0,.97-.45,2.15-1.34,3.56-1.84,2.92-4.61,4.93-8.32,6.05ZM345.68,607.63c1.28-.44,2.28-.93,3.01-1.48,1.28-.99,2.29-2.1,3.04-3.34.27-.44.41-.83.41-1.18,0-.36-.17-.55-.52-.55-.47,0-1.15.36-2.02,1.07-1.57,1.26-2.87,3.08-3.91,5.47Z"/>
    <path class="cls-80" d="M369.34,599.04c1.82-3.81,3.55-7.13,5.17-9.96,1.57-2.74,2.64-4.46,3.2-5.17.62-.78,1.2-1.18,1.75-1.18.29,0,.56.12.79.36.22.24.33.49.33.77,0,.42-.31,1.12-.93,2.11-2.65,4.27-5.07,8.6-7.28,13-2.55,5.12-3.83,8.96-3.83,11.52,0,1.04.2,1.86.6,2.46.07.13.4.42.98.88.11.09.16.27.16.55,0,.37-.14.7-.42,1-.28.3-.6.45-.94.45-.42,0-.88-.25-1.4-.77-.73-.73-1.17-1.57-1.31-2.52-.05-.4-.12-1.15-.19-2.24-1.92,3.45-3.74,5.17-5.47,5.17-1,0-1.81-.57-2.41-1.7-.4-.75-.6-1.6-.6-2.54,0-2.85,1.04-5.71,3.12-8.59,2.06-2.85,4.28-4.27,6.65-4.27.66,0,1.33.23,2.02.68ZM368.41,601.28c-.49-.33-.92-.49-1.29-.49-1.53,0-2.98.94-4.35,2.82-1.81,2.45-2.71,4.81-2.71,7.09,0,.27.05.53.16.77.22.46.55.68.99.68.64,0,1.41-.62,2.33-1.86,1.22-1.64,2.35-3.58,3.39-5.83.36-.77.72-1.53,1.07-2.3l.25-.52.16-.36Z"/>
    <path class="cls-87" d="M401.98,606.48c.58-.86,1.93-2.92,4.05-6.18,1.81-2.79,4.69-6.81,8.65-12.07,2.3-3.05,4.38-5.6,6.24-7.66,1.11-1.24,2.1-1.86,2.96-1.86.49,0,.9.17,1.23.52.29.27.44.62.44,1.04,0,.62-.37,1.6-1.12,2.93-.15.27-.89,1.6-2.24,3.97-2.41,4.27-4.04,7.31-4.9,9.14-2.35,5-4.08,9.26-5.17,12.78-.64,2.1-.96,3.64-.96,4.62,0,.22.02.45.06.68.09.71.14,1.13.14,1.26,0,.53-.2,1.02-.6,1.48-.35.42-.74.63-1.18.63-.51,0-.93-.3-1.26-.9-.27-.46-.41-1.09-.41-1.92,0-5.16,4.3-15.3,12.91-30.43-4.51,4.82-9.49,11.71-14.97,20.68-1.2,1.95-2.2,3.27-2.98,3.97-.77.67-1.5,1.01-2.19,1.01s-1.2-.3-1.53-.9c-.22-.4-.33-.87-.33-1.4,0-4.56,2.71-11.74,8.13-21.53-1.84,1.88-3.61,4.06-5.31,6.54-3.08,4.58-5.84,9.28-8.26,14.09-1.15,2.32-2.54,5.41-4.19,9.27-.82,1.97-1.77,2.96-2.85,2.96-.27,0-.5-.12-.68-.36-.15-.16-.22-.37-.22-.6,0-.35.34-1.29,1.01-2.85,1.44-3.41,2.54-5.86,3.31-7.36,3.92-7.64,8.56-14.83,13.93-21.56,2.24-2.81,3.79-4.63,4.65-5.47.89-.86,1.63-1.29,2.22-1.29.36,0,.72.17,1.07.49.42.38.63.82.63,1.31,0,.55-.38,1.45-1.15,2.71-2.19,3.58-4.2,7.59-6.05,12.04-1.59,4.01-2.61,7.42-3.06,10.21Z"/>
    <path class="cls-20" d="M429.34,597.37c1.5,0,2.24.91,2.24,2.74,0,2.43-1.12,5.5-3.37,9.22-2.44,4.03-4.81,6.05-7.09,6.05-1.06,0-1.83-.49-2.33-1.48-.26-.49-.38-1.08-.38-1.78,0-2.33.8-4.87,2.41-7.61,1.5-2.54,3.26-4.5,5.28-5.91,1.19-.82,2.26-1.23,3.23-1.23ZM426.5,607.71c-.46-.36-.68-.65-.68-.85,0-.15.29-.55.88-1.2,1.64-1.84,2.46-3.33,2.46-4.46,0-.15-.05-.29-.14-.44-.15-.27-.37-.41-.68-.41-.58,0-1.44.57-2.57,1.7-1.46,1.46-2.57,2.96-3.34,4.51-.89,1.77-1.34,3.24-1.34,4.41,0,.31.08.58.25.82.24.33.54.49.9.49.88,0,1.81-.66,2.82-1.97.44-.55.79-1.11,1.07-1.7.27-.58.4-.88.38-.9Z"/>
    <path class="cls-82" d="M436.49,605.91c1.53-1.6,2.88-2.86,4.05-3.78,1.77-1.37,2.96-2.05,3.56-2.05.29,0,.55.11.77.33.2.2.3.42.3.66,0,.35-.32.91-.96,1.7-.99,1.24-1.67,2.3-2.05,3.17,4.27-4.29,7.19-6.43,8.76-6.43.33,0,.61.1.85.3.26.22.38.49.38.82,0,.51-.39,1.17-1.18,1.97-3.45,3.56-5.17,6.48-5.17,8.75,0,.93.16,1.6.49,2l.71.9c.15.16.22.37.22.63,0,.29-.12.57-.36.82-.27.29-.58.44-.93.44-.6,0-1.16-.38-1.67-1.15-.62-.91-.93-1.99-.93-3.23,0-1.66.47-3.34,1.42-5.04.33-.6.88-1.4,1.64-2.41-1.55,1.17-3.13,2.77-4.73,4.82-1.09,1.39-2.08,2.94-2.95,4.65-.42.82-.91,1.23-1.48,1.23-.62,0-.93-.35-.93-1.04,0-.75.51-2.29,1.53-4.62.58-1.33,1.3-2.74,2.16-4.21-3.12,2.41-5.46,5.67-7.03,9.8-.38.91-.89,1.37-1.53,1.37-.29,0-.53-.11-.71-.33-.2-.22-.3-.48-.3-.79,0-1.08.6-3.02,1.81-5.83,1.26-2.97,2.68-5.65,4.27-8.02,1.09-1.66,1.94-2.49,2.54-2.49.55,0,.82.29.82.88,0,.26-.34.89-1.01,1.92-1.19,1.92-1.97,3.34-2.35,4.27Z"/>
    <path class="cls-88" d="M453.81,609.76v.49c0,.4.1.75.3,1.04.46.68,1.2,1.01,2.24,1.01,2.28,0,4.92-1.75,7.91-5.25.53-.6.98-.9,1.34-.9.2,0,.38.1.55.3.11.15.16.28.16.41,0,.71-.88,1.92-2.63,3.61-1.37,1.33-2.83,2.42-4.38,3.26-1.55.84-2.99,1.26-4.32,1.26s-2.44-.47-3.23-1.42c-.53-.66-.79-1.55-.79-2.68,0-3.08,1.45-6.1,4.35-9.06,2.35-2.41,4.4-3.61,6.16-3.61.47,0,.9.15,1.29.44.47.38.71.89.71,1.5,0,.97-.45,2.15-1.34,3.56-1.84,2.92-4.61,4.93-8.32,6.05ZM454.41,607.63c1.28-.44,2.28-.93,3.01-1.48,1.28-.99,2.29-2.1,3.04-3.34.27-.44.41-.83.41-1.18,0-.36-.17-.55-.52-.55-.47,0-1.15.36-2.02,1.07-1.57,1.26-2.87,3.08-3.91,5.47Z"/>
    <path class="cls-86" d="M472.11,605.63c.24-.22.47-.44.68-.66,3.81-3.72,6.37-5.58,7.66-5.58.71,0,1.07.39,1.07,1.18,0,.55-.32,1.19-.96,1.94-3.48,4.07-5.23,7.65-5.23,10.75,0,1,.27,1.96.82,2.87.26.42.38.75.38.99,0,.22-.11.43-.33.63-.24.26-.52.38-.85.38-.75,0-1.38-.47-1.89-1.42-.49-.89-.74-1.98-.74-3.26,0-2.46.93-5.19,2.79-8.18-2.48,1.59-4.79,4.4-6.92,8.43-.55.97-1.13,1.45-1.75,1.45-.31,0-.57-.11-.77-.33-.26-.26-.38-.58-.38-.99,0-.99,1.12-3.57,3.37-7.74,1.2-2.26,2.15-3.9,2.85-4.92.69-1,1.29-1.5,1.78-1.5.24,0,.47.11.68.33.26.26.38.55.38.88,0,.4-.26.98-.79,1.72-.77,1.11-1.39,2.12-1.86,3.04Z"/>
    <path class="cls-91" d="M491.48,597.4c-1.19,1.84-2.28,3.9-3.28,6.18-1.44,3.25-2.16,5.67-2.16,7.28,0,.46.1.8.29,1.04s.48.36.86.36c.91,0,2.02-.86,3.31-2.57.82-1.06,1.55-2.12,2.19-3.17.35-.6.72-.9,1.12-.9.24,0,.44.08.6.25.15.16.22.33.22.49,0,.67-.89,2.18-2.65,4.51-2.12,2.81-4.05,4.21-5.8,4.21-.93,0-1.71-.43-2.33-1.29-.38-.55-.57-1.32-.57-2.33,0-2.21.64-4.78,1.92-7.71.31-.73,1.17-2.49,2.57-5.28-.49.13-.87.19-1.12.19-.38,0-.72-.09-1.01-.27-.4-.25-.6-.57-.6-.96,0-.46.26-.82.79-1.09.15-.07.82-.19,2.02-.36.44-.07,1.08-.25,1.92-.52.64-1.15,1.68-2.71,3.12-4.68.8-1.09,1.36-1.81,1.67-2.13.44-.46.82-.68,1.15-.68.24,0,.47.13.71.38.22.24.33.47.33.71,0,.47-.51,1.41-1.53,2.82-.67.91-1.18,1.65-1.5,2.22,2.02-.55,3.48-.82,4.35-.82,1,0,1.5.42,1.5,1.26,0,.42-.17.73-.52.93-.18.11-.66.2-1.42.27-.31-.02-1.69.33-4.13,1.04-.67.2-1.34.41-2,.63Z"/>
    <path class="cls-15" d="M507.71,596.85c1.13,0,1.98.2,2.54.6.56.4.85,1.01.85,1.83,0,1.08-.4,2.12-1.2,3.12-.77.95-1.92,1.71-3.45,2.3-.84.31-1.54.46-2.11.46-.77,0-1.15-.34-1.15-1.01,0-.46.22-.8.66-1.04.11-.05.73-.21,1.86-.46.67-.15,1.29-.46,1.86-.96.49-.42.74-.88.74-1.37,0-.38-.11-.67-.33-.85s-.55-.27-.98-.27c-1.06,0-2.23.43-3.5,1.29-1.48.97-2.22,2.12-2.22,3.45,0,.95.48,2.13,1.45,3.56,1.08,1.55,1.61,2.86,1.61,3.94,0,1.61-.71,2.86-2.13,3.78-.88.57-1.87.85-2.98.85-1.75,0-3.08-.63-3.99-1.89-.64-.89-.96-1.95-.96-3.17,0-1.42.37-2.62,1.09-3.58.47-.64.97-.96,1.48-.96.46,0,.68.18.68.55,0,.15-.08.36-.25.66-.42.78-.63,1.71-.63,2.76,0,.89.32,1.65.96,2.27.57.55,1.21.82,1.94.82s1.27-.24,1.67-.71c.33-.4.49-.91.49-1.53,0-.77-.44-1.76-1.31-2.98-1.2-1.68-1.81-3.2-1.81-4.57,0-1.82.99-3.44,2.98-4.84,1.93-1.35,3.98-2.02,6.13-2.02Z"/>
    <path class="cls-67" d="M545.13,583.88c-3.65.57-7.03,1.29-10.15,2.16-.66.24-1.17.36-1.53.36-.42,0-.78-.19-1.07-.58-.18-.22-.27-.47-.27-.77,0-.78.57-1.36,1.7-1.72,3.03-.91,6.59-1.75,10.7-2.52,5.14-.93,10.09-1.4,14.83-1.4,1.6,0,2.68.1,3.23.3.51.18.77.53.77,1.04,0,.86-.63,1.36-1.89,1.5-1.09.11-2.75.19-4.95.25-4.4.15-7.41.42-9.03.82.46.18.68.46.68.85s-.29,1.03-.88,1.89c-3.47,5.07-6.78,10.83-9.93,17.26-2.41,4.89-4.17,9.23-5.28,13.02-.25,1.15-.69,1.72-1.31,1.72-.57,0-1.04-.29-1.42-.88-.26-.38-.38-.78-.38-1.2,0-1.68,1.6-5.76,4.79-12.26,2.04-4.18,3.93-7.7,5.66-10.56.69-1.17,2.36-3.88,5.01-8.13l.74-1.18Z"/>
    <path class="cls-30" d="M555.34,603.83c1.35-1.4,2.7-2.58,4.05-3.53,1.73-1.2,2.97-1.81,3.72-1.81.31,0,.61.13.9.38.33.29.49.63.49,1.01,0,.49-.39,1.26-1.18,2.3-1.51,2.01-2.66,3.83-3.45,5.47-.69,1.42-1.04,2.39-1.04,2.9s.24.74.71.74c.98,0,2.64-1.75,4.98-5.25.47-.71.9-1.07,1.29-1.07s.57.22.57.66c0,.71-.69,2.07-2.08,4.08-1.2,1.75-2.46,3.09-3.78,4.02-.93.64-1.77.96-2.52.96s-1.35-.34-1.7-1.01c-.22-.42-.33-.88-.33-1.4,0-1.62.57-3.47,1.72-5.55.27-.49,1.09-1.9,2.46-4.21-3.72,1.88-6.87,5.94-9.44,12.17-.24.71-.6,1.07-1.09,1.07-.35,0-.63-.12-.85-.36-.22-.25-.33-.57-.33-.93,0-.6.58-2.31,1.75-5.12,2.17-5.22,4.2-9.63,6.07-13.24,1.88-3.65,3.97-7.43,6.27-11.35.55-.95.98-1.59,1.29-1.92.31-.33.64-.49.98-.49.33,0,.61.17.85.52.18.26.27.55.27.88,0,.51-.29,1.2-.88,2.05-1.97,3.05-3.93,6.39-5.88,10.04-2.1,3.9-3.38,6.57-3.86,7.99Z"/>
    <path class="cls-58" d="M568.34,609.76v.49c0,.4.1.75.3,1.04.46.68,1.2,1.01,2.24,1.01,2.28,0,4.92-1.75,7.91-5.25.53-.6.98-.9,1.34-.9.2,0,.38.1.55.3.11.15.16.28.16.41,0,.71-.88,1.92-2.63,3.61-1.37,1.33-2.83,2.42-4.38,3.26-1.55.84-2.99,1.26-4.32,1.26s-2.44-.47-3.23-1.42c-.53-.66-.79-1.55-.79-2.68,0-3.08,1.45-6.1,4.35-9.06,2.35-2.41,4.41-3.61,6.16-3.61.47,0,.9.15,1.29.44.47.38.71.89.71,1.5,0,.97-.45,2.15-1.34,3.56-1.84,2.92-4.62,4.93-8.32,6.05ZM568.94,607.63c1.28-.44,2.28-.93,3.01-1.48,1.28-.99,2.29-2.1,3.04-3.34.27-.44.41-.83.41-1.18,0-.36-.17-.55-.52-.55-.47,0-1.15.36-2.02,1.07-1.57,1.26-2.87,3.08-3.91,5.47Z"/>
    <path class="cls-52" d="M625.03,582.51c-3.21,8.32-6.23,15-9.06,20.06-2.83,5.02-5.58,8.62-8.26,10.81-2.21,1.77-4.28,2.65-6.21,2.65-1.61,0-2.86-.73-3.75-2.19-.69-1.13-1.04-2.38-1.04-3.75,0-3.06.88-6.27,2.65-9.6,1.11-2.08,2.54-3.93,4.3-5.55.84-.78,1.45-1.18,1.83-1.18.26,0,.49.14.71.41.15.18.22.39.22.63,0,.27-.49,1.05-1.48,2.33-3.36,4.4-5.03,8.38-5.03,11.96,0,1.09.24,2.05.71,2.87.53.89,1.28,1.34,2.24,1.34,1.92,0,4-1.67,6.27-5.01,2.88-4.23,5.92-9.86,9.11-16.88,1.51-3.36,2.68-6.17,3.5-8.46-3.5.68-5.94,1.29-7.3,1.83-.6.24-1.09.36-1.45.36-.38,0-.72-.18-1.01-.55-.18-.24-.27-.52-.27-.85,0-.77.52-1.34,1.56-1.72,4.41-1.64,9.17-2.46,14.28-2.46,1.46,0,2.47.13,3.04.38.55.25.82.65.82,1.18,0,.97-.64,1.45-1.92,1.45-.36,0-.86-.02-1.48-.05-.62-.02-1.14-.03-1.56-.03-.31,0-.78,0-1.42.03Z"/>
    <path class="cls-57" d="M627.44,610.5c-.6,1.06-1.19,1.95-1.78,2.68-1.15,1.42-2.29,2.13-3.42,2.13-.99,0-1.75-.46-2.3-1.4-.35-.6-.52-1.31-.52-2.13,0-2.03.64-4.26,1.92-6.7,1.42-2.72,3.14-4.81,5.14-6.27,1.31-.95,2.58-1.42,3.8-1.42.77,0,1.4.24,1.92.71.44.42.66.89.66,1.42,0,.4-.15.96-.46,1.67.27.38.41.72.41,1.01,0,.38-.25,1.01-.77,1.89-.53.89-1.06,2.08-1.59,3.56-.57,1.57-.85,2.83-.85,3.78,0,.77.23,1.4.68,1.89.13.13.5.34,1.12.63.46.22.68.6.68,1.15,0,.35-.13.63-.38.85-.27.24-.59.36-.96.36-.98,0-1.83-.44-2.54-1.31-.58-.71-.88-1.61-.88-2.68,0-.36.04-.97.11-1.81ZM630.85,601.5c-.22-.4-.46-.7-.71-.89-.26-.19-.53-.29-.82-.29-1.39,0-2.89,1.21-4.51,3.64-1.79,2.68-2.68,4.95-2.68,6.81,0,.46.09.8.26,1.04.17.24.43.36.78.36.88,0,1.9-.93,3.06-2.79.66-1.02,1.47-2.53,2.44-4.51.64-1.29,1.1-2.15,1.4-2.57.15-.22.41-.48.79-.79Z"/>
    <path class="cls-12" d="M641.74,600.65c1.55-1.31,2.95-1.97,4.19-1.97.77,0,1.39.32,1.89.96.46.57.68,1.22.68,1.97,0,1.42-.46,3.15-1.4,5.17-1.04,2.24-2.54,4.33-4.51,6.27-1.62,1.61-3.17,2.41-4.65,2.41-.55,0-1.04-.1-1.49-.3-.45-.2-.84-.5-1.19-.9-.15.26-.24.42-.27.49-.31.68-.52,1.09-.64,1.23-.12.15-.3.22-.56.22-.33,0-.64-.19-.93-.57-.2-.25-.3-.53-.3-.82,0-.51,1.05-3.09,3.15-7.74,2.94-6.49,6.34-12.95,10.21-19.37,1.57-2.63,2.53-4.17,2.87-4.62.38-.55.74-.82,1.07-.82.4,0,.76.2,1.07.6.2.26.3.56.3.9,0,.38-.17.87-.52,1.45-.07.13-.65,1.07-1.72,2.82-3.3,5.11-5.71,9.32-7.22,12.64ZM637.13,612.5c.28.18.58.27.89.27,1.59,0,3.26-1.38,5.03-4.13.82-1.24,1.47-2.47,1.94-3.69.42-1.09.63-1.91.63-2.43,0-.37-.08-.63-.25-.81-.16-.17-.42-.26-.77-.26-.84,0-1.85.57-3.04,1.72-1.19,1.13-2.35,2.76-3.5,4.9-.55,1.02-1.02,1.98-1.42,2.87l-.36.74c.27.36.55.64.83.82Z"/>
    <path class="cls-55" d="M659.31,607.36c-1.62,1.92-2.92,3.34-3.88,4.27-1.92,1.82-3.51,2.74-4.79,2.74-.62,0-1.11-.23-1.48-.68-.27-.37-.41-.82-.41-1.37,0-1.97,1.17-4.59,3.5-7.85,2.37-3.32,4.09-4.98,5.14-4.98.29,0,.55.13.77.38.2.2.3.44.3.71,0,.4-.11.75-.32,1.05-.21.3-.81.97-1.79,2.01-1.04,1.08-2,2.24-2.87,3.5-1,1.42-1.5,2.46-1.5,3.12,0,.38.18.57.55.57.73,0,2.1-.99,4.1-2.98,1.26-1.26,2.24-2.32,2.96-3.17.15-.18.78-1.05,1.92-2.6,1.02-1.37,1.65-2.18,1.89-2.44.55-.64,1.06-.96,1.53-.96.29,0,.56.13.79.38.22.24.33.51.33.82,0,.53-.36,1.41-1.09,2.65-.88,1.51-1.68,2.93-2.41,4.24-1.15,2.04-2.03,3.87-2.65,5.47,1.17-.67,2.23-1.5,3.2-2.49,1.64-1.64,2.64-2.86,3.01-3.67.35-.73.7-1.09,1.07-1.09.51,0,.77.26.77.77,0,.97-.82,2.41-2.46,4.32-1.97,2.3-4.4,4.25-7.28,5.85-1.53,3.68-2.98,6.74-4.35,9.17-2.55,4.47-5.19,6.7-7.91,6.7-1.11,0-2.01-.43-2.68-1.29-.53-.66-.79-1.49-.79-2.49,0-2.85,2-5.75,5.99-8.73,1.17-.88,2.9-1.97,5.2-3.28.93-.53,1.66-.96,2.19-1.29.33-.84.83-1.95,1.5-3.34.75-1.5,1.4-2.84,1.97-4.05ZM654.28,618.11c-1.93.98-3.91,2.39-5.94,4.21-2.04,1.88-3.06,3.63-3.06,5.25,0,.35.1.64.3.88.27.33.63.49,1.07.49,1.37,0,2.88-1.43,4.54-4.29.27-.47,1.02-2.05,2.24-4.73.26-.55.54-1.15.85-1.81Z"/>
    <path class="cls-13" d="M688.67,613.98c1.06-1.39,2-2.72,2.82-4,.47-.75,1.72-2.79,3.75-6.13l2.33-3.8c1.71-2.81,2.85-4.61,3.42-5.39.93-1.33,1.85-2,2.76-2,.66,0,.99.25.99.77,0,.35-.13.78-.38,1.31-.18.37-.69,1.63-1.53,3.8-.84,2.21-1.49,4.67-1.94,7.39-.33,1.93-.49,3.58-.49,4.95,0,.4.02.84.07,1.33.05.48.11,1.02.21,1.6.73-.91,1.53-2.23,2.41-3.94.84-1.71,2.13-4.44,3.88-8.18,1.66-3.57,3.6-7.29,5.83-11.14,1.82-3.17,4-6.38,6.54-9.63,1.19-1.53,2.13-2.3,2.85-2.3.31,0,.59.16.85.46.18.22.27.46.27.74,0,.37-.57,1.27-1.7,2.71-2.23,2.83-4.35,5.96-6.38,9.38-2.32,3.98-5.22,9.63-8.7,16.96-1.55,3.28-2.74,5.62-3.56,7-.86,1.42-1.84,2.13-2.96,2.13-.95,0-1.66-.42-2.13-1.25-.47-.83-.71-2.07-.71-3.71,0-2.64.44-5.92,1.31-9.82-.86,1.08-1.86,2.6-3.01,4.57-.86,1.46-1.69,2.86-2.49,4.21-1.17,1.95-1.94,3.26-2.33,3.94-.58,1.04-1.19,1.86-1.81,2.46-.46.44-.99.66-1.61.66-.75,0-1.29-.32-1.61-.96-.24-.44-.36-.98-.36-1.61,0-4.34,2.28-12.12,6.84-23.34,2.23-5.49,3.52-8.86,3.89-10.1.33-1.2.66-1.97.98-2.3.44-.47.95-.71,1.53-.71.8,0,1.2.38,1.2,1.15,0,.93-.35,2.34-1.04,4.24-.78,2.15-2.04,5.2-3.78,9.14-1.19,2.72-2.02,4.75-2.52,6.1-2.23,6.71-3.46,11.14-3.69,13.27Z"/>
    <path class="cls-46" d="M721.58,610.5c-.6,1.06-1.19,1.95-1.78,2.68-1.15,1.42-2.29,2.13-3.42,2.13-.99,0-1.75-.46-2.3-1.4-.35-.6-.52-1.31-.52-2.13,0-2.03.64-4.26,1.92-6.7,1.42-2.72,3.14-4.81,5.14-6.27,1.31-.95,2.58-1.42,3.8-1.42.77,0,1.4.24,1.92.71.44.42.66.89.66,1.42,0,.4-.15.96-.46,1.67.27.38.41.72.41,1.01,0,.38-.25,1.01-.77,1.89-.53.89-1.06,2.08-1.59,3.56-.57,1.57-.85,2.83-.85,3.78,0,.77.23,1.4.68,1.89.13.13.5.34,1.12.63.46.22.68.6.68,1.15,0,.35-.13.63-.38.85-.27.24-.59.36-.96.36-.98,0-1.83-.44-2.54-1.31-.58-.71-.88-1.61-.88-2.68,0-.36.04-.97.11-1.81ZM725,601.5c-.22-.4-.46-.7-.71-.89-.26-.19-.53-.29-.82-.29-1.39,0-2.89,1.21-4.51,3.64-1.79,2.68-2.68,4.95-2.68,6.81,0,.46.09.8.26,1.04.17.24.43.36.78.36.88,0,1.9-.93,3.06-2.79.66-1.02,1.47-2.53,2.44-4.51.64-1.29,1.1-2.15,1.4-2.57.15-.22.41-.48.79-.79Z"/>
    <path class="cls-36" d="M737.86,607.36c-1.62,1.92-2.92,3.34-3.88,4.27-1.92,1.82-3.51,2.74-4.79,2.74-.62,0-1.11-.23-1.48-.68-.27-.37-.41-.82-.41-1.37,0-1.97,1.17-4.59,3.5-7.85,2.37-3.32,4.09-4.98,5.14-4.98.29,0,.55.13.77.38.2.2.3.44.3.71,0,.4-.11.75-.32,1.05-.21.3-.81.97-1.79,2.01-1.04,1.08-2,2.24-2.87,3.5-1,1.42-1.5,2.46-1.5,3.12,0,.38.18.57.55.57.73,0,2.1-.99,4.1-2.98,1.26-1.26,2.24-2.32,2.96-3.17.15-.18.78-1.05,1.92-2.6,1.02-1.37,1.65-2.18,1.89-2.44.55-.64,1.06-.96,1.53-.96.29,0,.56.13.79.38.22.24.33.51.33.82,0,.53-.36,1.41-1.09,2.65-.88,1.51-1.68,2.93-2.41,4.24-1.15,2.04-2.03,3.87-2.65,5.47,1.17-.67,2.23-1.5,3.2-2.49,1.64-1.64,2.64-2.86,3.01-3.67.35-.73.7-1.09,1.07-1.09.51,0,.77.26.77.77,0,.97-.82,2.41-2.46,4.32-1.97,2.3-4.4,4.25-7.28,5.85-1.53,3.68-2.98,6.74-4.35,9.17-2.55,4.47-5.19,6.7-7.91,6.7-1.11,0-2.01-.43-2.68-1.29-.53-.66-.79-1.49-.79-2.49,0-2.85,2-5.75,5.99-8.73,1.17-.88,2.9-1.97,5.2-3.28.93-.53,1.66-.96,2.19-1.29.33-.84.83-1.95,1.5-3.34.75-1.5,1.4-2.84,1.97-4.05ZM732.83,618.11c-1.93.98-3.91,2.39-5.94,4.21-2.04,1.88-3.06,3.63-3.06,5.25,0,.35.1.64.3.88.27.33.63.49,1.07.49,1.37,0,2.88-1.43,4.54-4.29.27-.47,1.02-2.05,2.24-4.73.26-.55.54-1.15.85-1.81Z"/>
  </g>
</svg>